<mxfile host="65bd71144e">
    <diagram id="moHyxJ4A2mZpLBF6vPrt" name="Pagina-1">
        <mxGraphModel dx="1218" dy="1605" grid="1" gridSize="10" guides="1" tooltips="1" connect="1" arrows="1" fold="1" page="1" pageScale="1" pageWidth="827" pageHeight="1169" math="0" shadow="0">
            <root>
                <mxCell id="0"/>
                <mxCell id="1" parent="0"/>
                <mxCell id="8" value="" style="points=[[0,0],[0.25,0],[0.5,0],[0.75,0],[1,0],[1,0.25],[1,0.5],[1,0.75],[1,1],[0.75,1],[0.5,1],[0.25,1],[0,1],[0,0.75],[0,0.5],[0,0.25]];outlineConnect=0;gradientColor=none;html=1;whiteSpace=wrap;fontSize=12;fontStyle=0;container=1;pointerEvents=0;collapsible=0;recursiveResize=0;shape=mxgraph.aws4.group;grIcon=mxgraph.aws4.group_aws_cloud;strokeColor=#232F3E;fillColor=none;verticalAlign=top;align=left;spacingLeft=30;fontColor=#232F3E;dashed=0;" parent="1" vertex="1">
                    <mxGeometry x="240" y="150" width="597.61" height="440" as="geometry"/>
                </mxCell>
                <mxCell id="17" value="" style="edgeStyle=elbowEdgeStyle;elbow=horizontal;endArrow=classic;html=1;curved=0;rounded=0;endSize=8;startSize=8;exitX=0;exitY=0.5;exitDx=0;exitDy=0;" parent="8" source="8" target="59" edge="1">
                    <mxGeometry width="50" height="50" relative="1" as="geometry">
                        <mxPoint x="230" y="250" as="sourcePoint"/>
                        <mxPoint x="80" y="220" as="targetPoint"/>
                    </mxGeometry>
                </mxCell>
                <mxCell id="28" value="" style="edgeStyle=elbowEdgeStyle;elbow=horizontal;endArrow=classic;html=1;curved=0;rounded=0;endSize=8;startSize=8;exitX=0;exitY=0.5;exitDx=0;exitDy=0;entryX=0;entryY=0.5;entryDx=0;entryDy=0;" parent="8" source="59" target="8" edge="1">
                    <mxGeometry width="50" height="50" relative="1" as="geometry">
                        <mxPoint x="80" y="220" as="sourcePoint"/>
                        <mxPoint x="190" y="200" as="targetPoint"/>
                    </mxGeometry>
                </mxCell>
                <mxCell id="29" value="" style="edgeStyle=elbowEdgeStyle;elbow=vertical;endArrow=classic;html=1;curved=0;rounded=0;endSize=8;startSize=8;exitX=0.5;exitY=1;exitDx=0;exitDy=0;entryX=0.5;entryY=0;entryDx=0;entryDy=0;" parent="8" source="59" target="56" edge="1">
                    <mxGeometry width="50" height="50" relative="1" as="geometry">
                        <mxPoint x="180" y="269" as="sourcePoint"/>
                        <mxPoint x="179" y="340" as="targetPoint"/>
                    </mxGeometry>
                </mxCell>
                <mxCell id="47" style="edgeStyle=none;html=1;" parent="8" source="32" target="56" edge="1">
                    <mxGeometry relative="1" as="geometry">
                        <mxPoint x="276.47" y="372.8276254645875" as="targetPoint"/>
                    </mxGeometry>
                </mxCell>
                <mxCell id="32" value="Persistent Volume" style="shape=datastore;whiteSpace=wrap;html=1;" parent="8" vertex="1">
                    <mxGeometry x="400" y="353.44000000000005" width="60" height="60" as="geometry"/>
                </mxCell>
                <mxCell id="50" style="edgeStyle=none;html=1;" parent="8" source="38" target="39" edge="1">
                    <mxGeometry relative="1" as="geometry"/>
                </mxCell>
                <mxCell id="38" value="" style="shape=image;imageAspect=0;aspect=fixed;verticalLabelPosition=bottom;verticalAlign=top;image=data:image/svg+xml,PHN2ZyB4bWxuczp4bGluaz0iaHR0cDovL3d3dy53My5vcmcvMTk5OS94bGluayIgeG1sbnM9Imh0dHA6Ly93d3cudzMub3JnLzIwMDAvc3ZnIiB4bWw6c3BhY2U9InByZXNlcnZlIiBzdHlsZT0iZW5hYmxlLWJhY2tncm91bmQ6bmV3IDAgMCAyNzYuNCAxODYuMjsiIHZpZXdCb3g9IjAgMCAyNzYuNCAxODYuMiIgeT0iMHB4IiB4PSIwcHgiIGlkPSJrYXRtYW5fMSIgdmVyc2lvbj0iMS4wIj4KPHN0eWxlIHR5cGU9InRleHQvY3NzIj4KCS5zdDB7Y2xpcC1wYXRoOnVybCgjU1ZHSURfMl8pO30KCS5zdDF7ZmlsbDojMEEwQTBBO30KCS5zdDJ7ZmlsbDp1cmwoI1NWR0lEXzNfKTt9Cjwvc3R5bGU+CjxnPgoJPGRlZnM+CgkJPHJlY3QgaGVpZ2h0PSI0Ny45IiB3aWR0aD0iMjA2LjMiIHk9IjY5LjEiIHg9IjM0LjciIGlkPSJTVkdJRF8xXyIvPgoJPC9kZWZzPgoJPGNsaXBQYXRoIGlkPSJTVkdJRF8yXyI+CgkJPHVzZSBzdHlsZT0ib3ZlcmZsb3c6dmlzaWJsZTsiIHhsaW5rOmhyZWY9IiNTVkdJRF8xXyIvPgoJPC9jbGlwUGF0aD4KCTxnIGNsYXNzPSJzdDAiPgoJCTxwYXRoIGQ9Ik0xMTcuNiw5NC45Yy0wLjMsOC40LTYuOSwxNC45LTE1LjEsMTQuOWMtOC43LDAtMTUuMS03LTE1LjEtMTUuNWMwLTguNSw3LTE1LjUsMTUuNS0xNS41JiMxMDsmIzk7JiM5OyYjOTtjMy44LDAsNy42LDEuNywxMC44LDQuNmwtMi41LDNjLTIuNC0yLjEtNS40LTMuNS04LjMtMy41Yy02LjIsMC0xMS4zLDUuMS0xMS4zLDExLjRjMCw2LjQsNC44LDExLjMsMTEsMTEuM2M1LjUsMCw5LjktNCwxMC43LTkuMiYjMTA7JiM5OyYjOTsmIzk7aC0xMi41di0zLjdoMTYuOUwxMTcuNiw5NC45TDExNy42LDk0Ljl6IiBjbGFzcz0ic3QxIi8+CgkJPHBhdGggZD0iTTEzMiw5Mi45aC0yLjNjLTIuNSwwLTQuNiwyLjEtNC42LDQuNnYxMmgtNC4xVjg5aDMuNHYxLjdjMS4xLTEuMSwyLjktMS43LDQuOS0xLjdoNC41TDEzMiw5Mi45eiIgY2xhc3M9InN0MSIvPgoJCTxwYXRoIGQ9Ik0xNTQuNCwxMDkuNmgtMy41VjEwN2MtMi43LDIuNi03LDMuOS0xMS4zLDJjLTMuMi0xLjQtNS42LTQuMy02LjItNy44Yy0xLjItNi43LDMuOS0xMi42LDEwLjQtMTIuNiYjMTA7JiM5OyYjOTsmIzk7YzIuOCwwLDUuMiwxLjEsNywyLjlWODloMy41TDE1NC40LDEwOS42TDE1NC40LDEwOS42eiBNMTUwLjIsMTAwLjdjMS00LjItMi4yLTgtNi4zLThjLTMuNiwwLTYuNSwyLjktNi41LDYuNSYjMTA7JiM5OyYjOTsmIzk7YzAsNCwzLjUsNy4xLDcuNiw2LjRDMTQ3LjUsMTA1LjIsMTQ5LjYsMTAzLjIsMTUwLjIsMTAwLjd6IiBjbGFzcz0ic3QxIi8+CgkJPHBhdGggZD0iTTE2Mi43LDg3LjhWODloNi42djMuNmgtNi42djE3aC00LjFWODcuOWMwLTQuNSwzLjMtNy4yLDcuMy03LjJoNC45bC0xLjcsMy45SDE2NiYjMTA7JiM5OyYjOTsmIzk7QzE2NC4yLDg0LjYsMTYyLjcsODYsMTYyLjcsODcuOHoiIGNsYXNzPSJzdDEiLz4KCQk8cGF0aCBkPSJNMTkxLjEsMTA5LjZoLTMuNVYxMDdjLTIuNywyLjYtNywzLjktMTEuMywyYy0zLjItMS40LTUuNi00LjMtNi4yLTcuOGMtMS4yLTYuNywzLjktMTIuNiwxMC40LTEyLjYmIzEwOyYjOTsmIzk7JiM5O2MyLjgsMCw1LjIsMS4xLDcsMi45Vjg5aDMuNUwxOTEuMSwxMDkuNnogTTE4Ni45LDEwMC43YzEtNC4yLTIuMi04LTYuMy04Yy0zLjYsMC02LjUsMi45LTYuNSw2LjVjMCw0LDMuNSw3LjEsNy42LDYuNCYjMTA7JiM5OyYjOTsmIzk7QzE4NC4yLDEwNS4yLDE4Ni4zLDEwMy4yLDE4Ni45LDEwMC43eiIgY2xhc3M9InN0MSIvPgoJCTxwYXRoIGQ9Ik0yMTMuMSw5Ny40djEyLjJIMjA5Vjk3LjRjMC0yLjYtMi4xLTQuNi00LjYtNC42Yy0yLjYsMC00LjcsMi4xLTQuNyw0LjZ2MTIuMmgtNC4xVjg5aDMuNHYxLjgmIzEwOyYjOTsmIzk7JiM5O2MxLjUtMS4zLDMuNS0yLjEsNS41LTIuMUMyMDkuMyw4OC42LDIxMy4xLDkyLjUsMjEzLjEsOTcuNHoiIGNsYXNzPSJzdDEiLz4KCQk8cGF0aCBkPSJNMjM3LjQsMTA5LjZoLTMuNVYxMDdjLTIuNywyLjYtNywzLjktMTEuMywyYy0zLjItMS40LTUuNi00LjMtNi4yLTcuOGMtMS4yLTYuNywzLjktMTIuNiwxMC40LTEyLjYmIzEwOyYjOTsmIzk7JiM5O2MyLjgsMCw1LjIsMS4xLDcsMi45Vjg5aDMuNUwyMzcuNCwxMDkuNnogTTIzMy4xLDEwMC43YzEtNC4yLTIuMi04LTYuMy04Yy0zLjYsMC02LjUsMi45LTYuNSw2LjVjMCw0LDMuNSw3LjEsNy42LDYuNCYjMTA7JiM5OyYjOTsmIzk7QzIzMC41LDEwNS4yLDIzMi42LDEwMy4yLDIzMy4xLDEwMC43eiIgY2xhc3M9InN0MSIvPgoJCQoJCQk8bGluZWFyR3JhZGllbnQgZ3JhZGllbnRUcmFuc2Zvcm09Im1hdHJpeCgxIDAgMCAtMSAwIDE4OC4xNikiIHkyPSIxMDQuMTYyNyIgeDI9IjU2Ljc4NzciIHkxPSI2MC4zODA3IiB4MT0iNTYuNzg3NyIgZ3JhZGllbnRVbml0cz0idXNlclNwYWNlT25Vc2UiIGlkPSJTVkdJRF8zXyI+CgkJCTxzdG9wIHN0eWxlPSJzdG9wLWNvbG9yOiNGRkYxMDAiIG9mZnNldD0iMCIvPgoJCQk8c3RvcCBzdHlsZT0ic3RvcC1jb2xvcjojRjA1QTI4IiBvZmZzZXQ9IjEiLz4KCQk8L2xpbmVhckdyYWRpZW50PgoJCTxwYXRoIGQ9Ik03OC44LDkwLjJjLTAuMS0wLjgtMC4yLTEuNy0wLjUtMi44Yy0wLjMtMS0wLjctMi4xLTEuMi0zLjNjLTAuNi0xLjItMS4zLTIuNC0yLjMtMy41JiMxMDsmIzk7JiM5OyYjOTtjLTAuNC0wLjUtMC44LTAuOS0xLjMtMS40YzAuNy0yLjctMC44LTUtMC44LTVjLTIuNi0wLjItNC4yLDAuOC00LjgsMS4yYy0wLjEsMC0wLjItMC4xLTAuMy0wLjFjLTAuNC0wLjItMC45LTAuMy0xLjQtMC41JiMxMDsmIzk7JiM5OyYjOTtjLTAuNS0wLjEtMC45LTAuMy0xLjQtMC40Yy0wLjUtMC4xLTEtMC4yLTEuNS0wLjNjLTAuMSwwLTAuMiwwLTAuMywwYy0xLjEtMy42LTQuNC01LjEtNC40LTUuMWMtMy42LDIuMy00LjMsNS41LTQuMyw1LjUmIzEwOyYjOTsmIzk7JiM5O3MwLDAuMSwwLDAuMmMtMC4yLDAuMS0wLjQsMC4xLTAuNiwwLjJjLTAuMywwLjEtMC41LDAuMi0wLjgsMC4zYy0wLjMsMC4xLTAuNSwwLjItMC44LDAuM2MtMC41LDAuMi0xLjEsMC41LTEuNiwwLjgmIzEwOyYjOTsmIzk7JiM5O2MtMC41LDAuMy0xLDAuNi0xLjUsMC45Yy0wLjEsMC0wLjEtMC4xLTAuMS0wLjFjLTUtMS45LTkuNCwwLjQtOS40LDAuNGMtMC40LDUuMywyLDguNiwyLjUsOS4zYy0wLjEsMC4zLTAuMiwwLjctMC4zLDEmIzEwOyYjOTsmIzk7JiM5O2MtMC40LDEuMi0wLjYsMi40LTAuOCwzLjdjMCwwLjIsMCwwLjQtMC4xLDAuNmMtNC42LDIuMy02LDYuOS02LDYuOWMzLjgsNC40LDguMyw0LjcsOC4zLDQuN2MwLDAsMCwwLDAsMGMwLjYsMSwxLjIsMiwyLDIuOSYjMTA7JiM5OyYjOTsmIzk7YzAuMywwLjQsMC42LDAuNywxLDEuMWMtMS40LDQsMC4yLDcuMywwLjIsNy4zYzQuMywwLjIsNy4xLTEuOSw3LjctMi4zYzAuNCwwLjEsMC45LDAuMywxLjMsMC40YzEuMywwLjMsMi43LDAuNSw0LDAuNiYjMTA7JiM5OyYjOTsmIzk7YzAuMywwLDAuNywwLDEsMGgwLjJsMC4xLDBsMC4yLDBsMC4yLDBsMCwwYzIsMi45LDUuNiwzLjMsNS42LDMuM2MyLjUtMi43LDIuNy01LjMsMi43LTUuOWMwLDAsMCwwLDAsMGMwLDAsMC0wLjEsMC0wLjEmIzEwOyYjOTsmIzk7JiM5O2MwLDAsMC0wLjEsMC0wLjFjMC41LTAuNCwxLTAuOCwxLjUtMS4yYzEtMC45LDEuOS0yLDIuNi0zLjFjMC4xLTAuMSwwLjEtMC4yLDAuMi0wLjNjMi45LDAuMiw0LjktMS44LDQuOS0xLjgmIzEwOyYjOTsmIzk7JiM5O2MtMC41LTMtMi4yLTQuNC0yLjUtNC43YzAsMCwwLDAsMCwwYzAsMCwwLDAsMCwwYzAsMCwwLDAtMC4xLDBjMC0wLjIsMC0wLjQsMC0wLjVjMC0wLjMsMC0wLjYsMC0xVjk4di0wLjF2LTAuMSYjMTA7JiM5OyYjOTsmIzk7YzAtMC4xLDAtMC4xLDAtMC4xbDAtMC4ybDAtMC4zYzAtMC4xLDAtMC4yLDAtMC4zYzAtMC4xLDAtMC4yLDAtMC4ybDAtMC4ybDAtMC4yYzAtMC4zLTAuMS0wLjYtMC4yLTFjLTAuMy0xLjMtMC44LTIuNS0xLjUtMy42JiMxMDsmIzk7JiM5OyYjOTtjLTAuNy0xLjEtMS41LTIuMS0yLjQtMi45Yy0wLjktMC44LTItMS41LTMuMS0yYy0xLjEtMC41LTIuMi0wLjgtMy40LTAuOWMtMC42LTAuMS0xLjEtMC4xLTEuNy0wLjFsLTAuMiwwaC0wLjFjMCwwLTAuMSwwLTAuMSwwJiMxMDsmIzk7JiM5OyYjOTtsLTAuMSwwbC0wLjIsMGMtMC4xLDAtMC4yLDAtMC4yLDBjLTAuMywwLTAuNiwwLjEtMC45LDAuMWMtMS4xLDAuMi0yLjIsMC42LTMuMSwxLjJjLTAuOSwwLjYtMS44LDEuMy0yLjQsMi4xJiMxMDsmIzk7JiM5OyYjOTtjLTAuNywwLjgtMS4yLDEuNy0xLjUsMi42Yy0wLjQsMC45LTAuNiwxLjktMC42LDIuOGMwLDAuMiwwLDAuNSwwLDAuN2MwLDAuMSwwLDAuMSwwLDAuMmwwLDAuMmMwLDAuMSwwLDAuMiwwLDAuMyYjMTA7JiM5OyYjOTsmIzk7YzAsMC41LDAuMSwwLjksMC4zLDEuM2MwLjIsMC45LDAuNiwxLjYsMS4xLDIuM2MwLjUsMC43LDEuMSwxLjIsMS43LDEuNmMwLjYsMC40LDEuMywwLjcsMS45LDAuOWMwLjcsMC4yLDEuMywwLjMsMS45LDAuMyYjMTA7JiM5OyYjOTsmIzk7YzAuMSwwLDAuMiwwLDAuMiwwYzAsMCwwLjEsMCwwLjEsMGMwLDAsMC4xLDAsMC4xLDBjMC4xLDAsMC4xLDAsMC4yLDBjMCwwLDAsMCwwLjEsMGwwLjEsMGMwLDAsMC4xLDAsMC4xLDBjMC4xLDAsMC4xLDAsMC4yLDAmIzEwOyYjOTsmIzk7JiM5O2MwLjEsMCwwLjEsMCwwLjIsMGMwLjEsMCwwLjMtMC4xLDAuNC0wLjFjMC4zLTAuMSwwLjUtMC4yLDAuOC0wLjNjMC4yLTAuMSwwLjUtMC4zLDAuNy0wLjRjMC4xLDAsMC4xLTAuMSwwLjItMC4xJiMxMDsmIzk7JiM5OyYjOTtjMC4yLTAuMiwwLjMtMC41LDAuMS0wLjdjLTAuMS0wLjItMC40LTAuMi0wLjYtMC4xYy0wLjEsMC0wLjEsMC4xLTAuMiwwLjFjLTAuMiwwLjEtMC40LDAuMi0wLjYsMC4yYy0wLjIsMC4xLTAuNCwwLjEtMC42LDAuMiYjMTA7JiM5OyYjOTsmIzk7Yy0wLjEsMC0wLjIsMC0wLjMsMGMtMC4xLDAtMC4xLDAtMC4yLDBjLTAuMSwwLTAuMSwwLTAuMiwwYy0wLjEsMC0wLjEsMC0wLjIsMGMtMC4xLDAtMC4xLDAtMC4yLDBjMCwwLDAsMCwwLDBoMGwwLDAmIzEwOyYjOTsmIzk7JiM5O2MwLDAtMC4xLDAtMC4xLDBjLTAuMSwwLTAuMSwwLTAuMiwwYy0wLjUtMC4xLTEtMC4yLTEuNC0wLjRjLTAuNS0wLjItMC45LTAuNS0xLjMtMC45Yy0wLjQtMC40LTAuOC0wLjgtMS0xLjMmIzEwOyYjOTsmIzk7JiM5O2MtMC4zLTAuNS0wLjUtMS4xLTAuNi0xLjZjMC0wLjMtMC4xLTAuNi0wLjEtMC45YzAtMC4xLDAtMC4yLDAtMC4yYzAsMCwwLDAsMCwwdjBsMC0wLjFjMCwwLDAtMC4xLDAtMC4xYzAtMC4yLDAtMC4zLDAuMS0wLjUmIzEwOyYjOTsmIzk7JiM5O2MwLjItMS4zLDAuOS0yLjUsMS44LTMuNGMwLjItMC4yLDAuNS0wLjUsMC44LTAuNmMwLjMtMC4yLDAuNi0wLjQsMC45LTAuNWMwLjMtMC4xLDAuNi0wLjMsMS0wLjRjMC4zLTAuMSwwLjctMC4xLDEtMC4yJiMxMDsmIzk7JiM5OyYjOTtjMC4yLDAsMC40LDAsMC41LDBjMCwwLDAuMSwwLDAuMSwwbDAuMSwwbDAuMSwwYzAsMCwwLDAsMCwwaDBsMC4xLDBjMC40LDAsMC44LDAuMSwxLjEsMC4yYzAuNywwLjIsMS41LDAuNCwyLjEsMC44JiMxMDsmIzk7JiM5OyYjOTtjMS4zLDAuNywyLjUsMS45LDMuMiwzLjNjMC40LDAuNywwLjYsMS41LDAuNywyLjJjMCwwLjIsMC4xLDAuNCwwLjEsMC42bDAsMC4xbDAsMC4xYzAsMC4xLDAsMC4xLDAsMC4xYzAsMC4xLDAsMC4xLDAsMC4xdjAuMSYjMTA7JiM5OyYjOTsmIzk7bDAsMC4xYzAsMC4xLDAsMC4zLDAsMC40YzAsMC4yLDAsMC40LTAuMSwwLjZjMCwwLjItMC4xLDAuNC0wLjEsMC42YzAsMC4yLTAuMSwwLjQtMC4xLDAuNmMtMC4xLDAuNC0wLjIsMC44LTAuNCwxLjImIzEwOyYjOTsmIzk7JiM5O2MtMC4zLDAuOC0wLjcsMS42LTEuMiwyLjNjLTEsMS40LTIuNCwyLjUtNCwzLjNjLTAuOCwwLjQtMS42LDAuNi0yLjUsMC44Yy0wLjQsMC4xLTAuOSwwLjEtMS4zLDAuMWwtMC4xLDBoLTAuMWgtMC4xaC0wLjJoLTAuMSYjMTA7JiM5OyYjOTsmIzk7YzAuMSwwLDAsMCwwLDBoMGMtMC4yLDAtMC41LDAtMC43LDBjLTAuOS0wLjEtMS44LTAuMi0yLjctMC41Yy0wLjktMC4zLTEuNy0wLjYtMi42LTFjLTEuNi0wLjktMy4xLTIuMS00LjItMy41JiMxMDsmIzk7JiM5OyYjOTtjLTAuNi0wLjctMS4xLTEuNS0xLjUtMi4zYy0wLjQtMC44LTAuNy0xLjctMS0yLjVjLTAuMi0wLjktMC40LTEuOC0wLjQtMi43bDAtMC4ybDAsMHYwdi0wLjFsMC0wLjF2MHYtMC4xdi0wLjFsMC0wLjJ2MCYjMTA7JiM5OyYjOTsmIzk7YzAsMCwwLDAsMCwwdi0wLjFjMC0wLjEsMC0wLjIsMC0wLjNjMC0wLjQsMC4xLTAuOSwwLjEtMS40YzAuMS0wLjUsMC4xLTAuOSwwLjItMS40YzAuMS0wLjUsMC4yLTAuOSwwLjMtMS4zJiMxMDsmIzk7JiM5OyYjOTtjMC4zLTAuOSwwLjYtMS43LDAuOS0yLjVjMC43LTEuNiwxLjctMywyLjktNC4yYzAuMy0wLjMsMC42LTAuNiwwLjktMC44YzAuMy0wLjMsMC42LTAuNSwxLTAuN2MwLjMtMC4yLDAuNy0wLjQsMS0wLjYmIzEwOyYjOTsmIzk7JiM5O2MwLjItMC4xLDAuNC0wLjIsMC41LTAuM2MwLjEsMCwwLjItMC4xLDAuMy0wLjFjMC4xLDAsMC4yLTAuMSwwLjMtMC4xYzAuNC0wLjIsMC44LTAuMywxLjEtMC40YzAuMSwwLDAuMi0wLjEsMC4zLTAuMSYjMTA7JiM5OyYjOTsmIzk7YzAuMSwwLDAuMi0wLjEsMC4zLTAuMWMwLjItMC4xLDAuNC0wLjEsMC42LTAuMWMwLjEsMCwwLjIsMCwwLjMtMC4xczAuMiwwLDAuMy0wLjFjMC4xLDAsMC4yLDAsMC4zLTAuMWwwLjEsMGwwLjEsMCYjMTA7JiM5OyYjOTsmIzk7YzAuMSwwLDAuMiwwLDAuMywwYzAuMSwwLDAuMiwwLDAuMywwYzAuMSwwLDAuMiwwLDAuMywwYzAuMSwwLDAuMSwwLDAuMiwwbDAuMSwwbDAuMSwwbDAuMSwwYzAuMSwwLDAuMiwwLDAuMywwbDAuMiwwJiMxMDsmIzk7JiM5OyYjOTtjMCwwLDAuMSwwLDAsMGgwbDAuMSwwYzAuMSwwLDAuMiwwLDAuMywwYzAuNCwwLDAuOCwwLDEuMiwwYzAuOCwwLDEuNSwwLjEsMi4zLDAuM2MxLjUsMC4zLDIuOCwwLjcsNC4xLDEuNCYjMTA7JiM5OyYjOTsmIzk7YzEuMiwwLjYsMi40LDEuNCwzLjMsMi4yYzAuMSwwLjEsMC4xLDAuMSwwLjIsMC4yYzAuMSwwLjEsMC4xLDAuMSwwLjIsMC4yYzAuMSwwLjEsMC4yLDAuMiwwLjMsMC4zYzAuMSwwLjEsMC4yLDAuMiwwLjMsMC4zJiMxMDsmIzk7JiM5OyYjOTtzMC4yLDAuMiwwLjMsMC4zYzAuNCwwLjQsMC44LDAuOSwxLjEsMS4zYzAuNywwLjksMS4yLDEuOCwxLjcsMi42YzAsMC4xLDAuMSwwLjEsMC4xLDAuMmMwLDAuMSwwLjEsMC4xLDAuMSwwLjImIzEwOyYjOTsmIzk7JiM5O2MwLjEsMC4xLDAuMSwwLjIsMC4xLDAuM2MwLDAuMSwwLjEsMC4yLDAuMSwwLjNjMCwwLjEsMC4xLDAuMiwwLjEsMC4zYzAuMiwwLjQsMC4zLDAuOCwwLjQsMS4xYzAuMiwwLjYsMC40LDEuMSwwLjUsMS41JiMxMDsmIzk7JiM5OyYjOTtjMCwwLjIsMC4yLDAuMywwLjQsMC4zYzAuMiwwLDAuMy0wLjIsMC4zLTAuNEM3OC44LDkxLjQsNzguOCw5MC45LDc4LjgsOTAuMnoiIGNsYXNzPSJzdDIiLz4KCTwvZz4KPC9nPgo8L3N2Zz4=;" parent="8" vertex="1">
                    <mxGeometry x="361.19" y="1.7763568394002505e-15" width="217.61" height="146.37" as="geometry"/>
                </mxCell>
                <mxCell id="51" style="edgeStyle=none;html=1;entryX=1;entryY=0;entryDx=0;entryDy=0;exitX=0;exitY=1;exitDx=0;exitDy=0;" parent="8" source="39" target="56" edge="1">
                    <mxGeometry relative="1" as="geometry">
                        <mxPoint x="276.4699999999998" y="340" as="targetPoint"/>
                    </mxGeometry>
                </mxCell>
                <mxCell id="54" style="edgeStyle=none;html=1;" parent="8" source="39" target="59" edge="1">
                    <mxGeometry relative="1" as="geometry">
                        <mxPoint x="280" y="220" as="targetPoint"/>
                    </mxGeometry>
                </mxCell>
                <mxCell id="39" value="" style="shape=image;imageAspect=0;aspect=fixed;verticalLabelPosition=bottom;verticalAlign=top;image=data:image/svg+xml,PHN2ZyB4bWxucz0iaHR0cDovL3d3dy53My5vcmcvMjAwMC9zdmciIG92ZXJmbG93PSJ2aXNpYmxlIiB2aWV3Qm94PSItNC42NDkgLTAuNjY3IDEyMCA2MCIgaGVpZ2h0PSI2MCIgd2lkdGg9IjEyMCI+PHBhdGggZmlsbD0iI2RhNGUzMSIgZD0iTTU1LjM1IDQuNjAyYy05LjIzIDAtMTYuNzEzIDcuNDgyLTE2LjcxMyAxNi43MTNTNDYuMTIgMzguMDI4IDU1LjM1IDM4LjAyOHMxNi43MTMtNy40ODMgMTYuNzEzLTE2LjcxM1M2NC41OCA0LjYwMiA1NS4zNSA0LjYwMnptMCAzMS4yOGMtMi42MjYgMC00Ljc1NS0xLjc1NC00Ljc1NS0zLjkxOGg5LjUxYzAgMi4xNjMtMi4xMyAzLjkxOC00Ljc1NSAzLjkxOHptNy44NTQtNS4yMTVoLTE1Ljcxdi0yLjg1aDE1Ljd2Mi44NXptLS4wNTYtNC4zMTVINDcuNTRsLS4xNTUtLjE4Yy0xLjYwOC0xLjk1My0xLjk4Ny0yLjk3Mi0yLjM1NC00LjAxLS4wMDYtLjAzNCAxLjk1LjQgMy4zMzcuNzEyYTQyLjE5IDQyLjE5IDAgMCAwIDEuNzU3LjM1NWMtMS4wMDItMS4xNzQtMS41OTctMi42NjctMS41OTctNC4xOTMgMC0zLjM1IDIuNTctNi4yNzggMS42NDItOC42NDQuOTAyLjA3MyAxLjg2NyAxLjkwNCAxLjkzMiA0Ljc2Ny45Ni0xLjMyNSAxLjM2LTMuNzQ2IDEuMzYtNS4yMyAwLTEuNTM3IDEuMDEzLTMuMzIyIDIuMDI1LTMuMzgzLS45MDMgMS40ODguMjM0IDIuNzY0IDEuMjQ0IDUuOTI4LjM4IDEuMTkuMzMgMy4xOS42MjMgNC40NTcuMDk3LTIuNjM1LjU1LTYuNDggMi4yMjItNy44MDYtLjczNyAxLjY3LjExIDMuNzYzLjY4OCA0Ljc2OC45MzQgMS42MjIgMS41IDIuODUgMS41IDUuMTc2IDAgMS41Ni0uNTc1IDMuMDI2LTEuNTQ2IDQuMTczIDEuMTA0LS4yMDcgMS44NjYtLjM5NCAxLjg2Ni0uMzk0bDMuNTg0LS43YzAgMC0uNTIgMi4xNC0yLjUyMiA0LjIwNHoiLz48cGF0aCBmaWxsPSIjZTY1MjJjIiBkPSJNOS42NDMgNDEuNTI0Yy43NzgtLjEzIDEuNzk3LS4yNCAzLjA5My0uMjQgMS41OTMgMCAyLjc2LjM3IDMuNSAxLjAzNy42NjcuNTkzIDEuMDkzIDEuNSAxLjA5MyAyLjYxMiAwIDEuMTMtLjMzMyAyLjAyLS45NjMgMi42NjctLjg3LjkwOC0yLjI0IDEuMzctMy44MTYgMS4zNy0uNDgyIDAtLjkyNi0uMDItMS4yOTctLjF2NWgtMS42em0xLjYgNi4wMmMuMzUyLjA5My43OTcuMTMgMS4zMzQuMTMgMS45NDUgMCAzLjEzLS45NjMgMy4xMy0yLjY1IDAtMS42NjctMS4xODUtMi40NjMtMi45NDUtMi40NjMtLjcwNCAwLTEuMjQuMDU2LTEuNTIuMTN6bTcuODkzLjE0OGwtLjA3NC0yLjc5N2gxLjQyNmwuMDc0IDEuNzc4aC4wNTZjLjQwOC0xLjIwNCAxLjQwOC0xLjk2NCAyLjUtMS45NjQuMTY3IDAgLjI5Ni4wMi40NDUuMDM3djEuNTM3Yy0uMTY3LS4wMzctLjMzMy0uMDM3LS41NTYtLjAzNy0xLjE0OCAwLTEuOTYzLjg1Mi0yLjE4NiAyLjA3NWE0Ljg4IDQuODggMCAwIDAtLjA1Ni43NnY0Ljc4aC0xLjYzdi02LjE2OHptMTMuOTk0IDEuNmMwIDMuMzE2LTIuMzE1IDQuNzYtNC40NjQgNC43Ni0yLjQwOCAwLTQuMjk3LTEuNzc4LTQuMjk3LTQuNjEyIDAtMi45ODIgMS45ODItNC43NDIgNC40NDYtNC43NDIgMi41NzUgMCA0LjMxNiAxLjg3IDQuMzE2IDQuNTk0em0tNy4wOTQuMDkzYzAgMS45NjQgMS4xIDMuNDQ1IDIuNzA0IDMuNDQ1IDEuNTU2IDAgMi43MjMtMS40NjMgMi43MjMtMy40ODIgMC0xLjUyLS43Ni0zLjQyNy0yLjY4Ni0zLjQyNy0xLjkwOCAwLTIuNzQgMS43NzgtMi43NCAzLjQ2NHptOS4xNTItMi4wNzZsLS4wNzQtMi40MjZoMS40MjZsLjA3NCAxLjQ2M2guMDU2Yy41LS44NTIgMS4zMzQtMS42NSAyLjgzNC0xLjY1IDEuMjA0IDAgMi4xMy43NCAyLjUyIDEuNzk3aC4wMzdhMy41NCAzLjU0IDAgMCAxIDEuMDE5LTEuMTY3Yy41MzctLjQwNyAxLjEtLjYzIDEuOTYzLS42MyAxLjIwNCAwIDIuOTY0Ljc3OCAyLjk2NCAzLjl2NS4yNmgtMS41OTNWNDguOGMwLTEuNzQtLjY1LTIuNzYtMS45NDUtMi43Ni0uOTQ1IDAtMS42NS42ODUtMS45NDUgMS40NjNhMi43OSAyLjc5IDAgMCAwLS4xMy44MTV2NS41MzhINDAuOHYtNS4zN2MwLTEuNDI2LS42My0yLjQ0NS0xLjg3LTIuNDQ1LTEgMC0xLjc2LjgxNS0yLjAyIDEuNjMtLjA5My4yMjItLjEzLjUyLS4xMy43OTd2NS40aC0xLjU5M3YtNi41NHptMTYuMzU3IDIuMzU1Yy4wMzcgMi4yMDQgMS40MjYgMy4xMTIgMy4wNzUgMy4xMTIgMS4xNjcgMCAxLjktLjIwNCAyLjQ4Mi0uNDYzbC4yOTYgMS4xNjdjLS41NzQuMjYtMS41NzQuNTc0LTMgLjU3NC0yLjc2IDAtNC40MDgtMS44MzQtNC40MDgtNC41MzhzMS41OTMtNC44MTYgNC4yMDUtNC44MTZjMi45NDUgMCAzLjcwNSAyLjU1NiAzLjcwNSA0LjIwNWE0LjA3IDQuMDcgMCAwIDEtLjA1Ni43NnptNC43OC0xLjE2N2MuMDItMS4wMi0uNDI2LTIuNjMtMi4yNi0yLjYzLTEuNjY3IDAtMi4zNyAxLjUtMi41IDIuNjN6bTUuNTU1LTUuNzZ2Mi4xNWgyLjMzNHYxLjI0SDYxLjg4djQuODM1YzAgMS4xLjMxNSAxLjc0IDEuMjIzIDEuNzQuNDQ1IDAgLjcwNC0uMDM3Ljk0NS0uMWwuMDc0IDEuMjRjLS4zMTUuMS0uODE1LjIyMi0xLjQ0NS4yMjItLjc2IDAtMS4zNy0uMjYtMS43Ni0uNjg1LS40NDUtLjUtLjYzLTEuMjk3LS42My0yLjM1M3YtNC45SDU4Ljl2LTEuMjRoMS40VjQzLjIzem00LjE3LTIuMDQ3aDEuNjN2NS42MTNoLjAzN2EzLjA3IDMuMDcgMCAwIDEgMS4xNjctMS4xNjcgMy4zNCAzLjM0IDAgMCAxIDEuNjY3LS40NDVjMS4yMDQgMCAzLjEzLjc0IDMuMTMgMy44MTZ2NS4zMzRoLTEuNjNWNDguN2MwLTEuNDQ1LS41MzctMi42NS0yLjA3NS0yLjY1LTEuMDU2IDAtMS44Ny43NC0yLjE4NiAxLjYtLjA5Mi4yNC0uMS40ODItLjEuNzc4djUuNGgtMS42M1Y0MC43em0xMS4xODggOC45NjRjLjAzNyAyLjIwNCAxLjQyNiAzLjExMiAzLjA3NSAzLjExMiAxLjE2NyAwIDEuOS0uMjA0IDIuNDgyLS40NjNsLjI5NiAxLjE2N2MtLjU3NC4yNi0xLjU3NC41NzQtMyAuNTc0LTIuNzYgMC00LjQtMS44MzQtNC40LTQuNTM4czEuNTkzLTQuODE2IDQuMjA1LTQuODE2YzIuOTQ1IDAgMy43MDUgMi41NTYgMy43MDUgNC4yMDVhMy45NiAzLjk2IDAgMCAxLS4wNTYuNzZ6bTQuNzgtMS4xNjdjLjAyLTEuMDItLjQyNi0yLjYzLTIuMjYtMi42My0xLjY2NyAwLTIuMzcgMS41LTIuNSAyLjYzem0xMS4wOTQgMi45MWwuMDc0IDIuNDY0SDkxLjc0bC0uMDkzLTEuNDYzSDkxLjZjLS40MDguNzIyLTEuMzcgMS42NjctMi45NjQgMS42NjctMS40MDggMC0zLjA5My0uNzk3LTMuMDkzLTMuOTI3di01LjI0MmgxLjYzdjQuOTQ1YzAgMS43MDQuNTM3IDIuODcgMiAyLjg3IDEuMDkzIDAgMS44NTItLjc2IDIuMTUtMS41YTIuMjQgMi4yNCAwIDAgMCAuMTQ4LS44MzR2LTUuNDgzaDEuNjN6bTIuNDgzLjgxNGMuNS4yOTYgMS4zNTIuNjMgMi4xNjcuNjMgMS4xNjcgMCAxLjcyMi0uNTc0IDEuNzIyLTEuMzM0IDAtLjc3OC0uNDYzLTEuMTg1LTEuNjUtMS42My0xLjYzLS41OTMtMi40LTEuNDYzLTIuNC0yLjUzOCAwLTEuNDQ1IDEuMTg1LTIuNjMgMy4wOTMtMi42My45MDggMCAxLjcwNC4yNCAyLjE4Ni41NTZsLS40IDEuMTg1Yy0uMzUyLS4yMjItMS0uNTM3LTEuODM0LS41MzctLjk2MyAwLTEuNDgyLjU1Ni0xLjQ4MiAxLjIyMyAwIC43NC41MTggMS4wNzQgMS42ODUgMS41MzcgMS41MzcuNTc0IDIuMzUyIDEuMzUyIDIuMzUyIDIuNjg2IDAgMS41OTMtMS4yNCAyLjcwNC0zLjMzNCAyLjcwNC0uOTgyIDAtMS45LS4yNi0yLjUyLS42M3oiLz48L3N2Zz4=;" parent="8" vertex="1">
                    <mxGeometry x="370" y="170" width="200" height="100" as="geometry"/>
                </mxCell>
                <mxCell id="57" style="edgeStyle=none;html=1;" parent="8" source="56" target="59" edge="1">
                    <mxGeometry relative="1" as="geometry">
                        <mxPoint x="180" y="290" as="targetPoint"/>
                    </mxGeometry>
                </mxCell>
                <mxCell id="58" style="edgeStyle=none;html=1;entryX=0;entryY=0.5;entryDx=0;entryDy=0;" parent="8" source="56" target="32" edge="1">
                    <mxGeometry relative="1" as="geometry"/>
                </mxCell>
                <mxCell id="56" value="" style="shape=image;imageAspect=0;aspect=fixed;verticalLabelPosition=bottom;verticalAlign=top;image=data:image/svg+xml,PHN2ZyB4bWxucz0iaHR0cDovL3d3dy53My5vcmcvMjAwMC9zdmciIGhlaWdodD0iOTkuNjAyNjU0IiB3aWR0aD0iMTQxLjQ4NSIgeG1sOnNwYWNlPSJwcmVzZXJ2ZSIgdmlld0JveD0iMCAwIDEzMi42NDIyIDkzLjM3NzQ4MSIgeT0iMHB4IiB4PSIwcHgiIGlkPSJMYXllcl8xIiB2ZXJzaW9uPSIxLjEiPjxtZXRhZGF0YSBpZD0ibWV0YWRhdGEyMCI+aW1hZ2Uvc3ZnK3htbDwvbWV0YWRhdGE+PGRlZnMgaWQ9ImRlZnMxOCI+PGNsaXBQYXRoIGlkPSJjbGlwUGF0aDg4MTIiIGNsaXBQYXRoVW5pdHM9InVzZXJTcGFjZU9uVXNlIj48Y2lyY2xlIHN0eWxlPSJmaWxsOiMwMDA4MGQ7ZmlsbC1vcGFjaXR5OjE7c3Ryb2tlLXdpZHRoOjEiIHI9Ijc5LjcyNDE5NyIgY3k9Ijk1LjY2OTI5NiIgY3g9Ijk1LjY2OTI4OSIgaWQ9ImNpcmNsZTg4MTQiLz48L2NsaXBQYXRoPjwvZGVmcz48cGF0aCBzdHlsZT0iY29sb3I6IzAwMDAwMDtmb250LXN0eWxlOm5vcm1hbDtmb250LXZhcmlhbnQ6bm9ybWFsO2ZvbnQtd2VpZ2h0Om5vcm1hbDtmb250LXN0cmV0Y2g6bm9ybWFsO2ZvbnQtc2l6ZTptZWRpdW07bGluZS1oZWlnaHQ6bm9ybWFsO2ZvbnQtZmFtaWx5OnNhbnMtc2VyaWY7dGV4dC1pbmRlbnQ6MDt0ZXh0LWFsaWduOnN0YXJ0O3RleHQtZGVjb3JhdGlvbjpub25lO3RleHQtZGVjb3JhdGlvbi1saW5lOm5vbmU7dGV4dC1kZWNvcmF0aW9uLXN0eWxlOnNvbGlkO3RleHQtZGVjb3JhdGlvbi1jb2xvcjojMDAwMDAwO2xldHRlci1zcGFjaW5nOm5vcm1hbDt3b3JkLXNwYWNpbmc6bm9ybWFsO3RleHQtdHJhbnNmb3JtOm5vbmU7d3JpdGluZy1tb2RlOmxyLXRiO2RpcmVjdGlvbjpsdHI7YmFzZWxpbmUtc2hpZnQ6YmFzZWxpbmU7dGV4dC1hbmNob3I6c3RhcnQ7d2hpdGUtc3BhY2U6bm9ybWFsO2NsaXAtcnVsZTpub256ZXJvO2Rpc3BsYXk6aW5saW5lO292ZXJmbG93OnZpc2libGU7dmlzaWJpbGl0eTp2aXNpYmxlO29wYWNpdHk6MTtpc29sYXRpb246YXV0bzttaXgtYmxlbmQtbW9kZTpub3JtYWw7Y29sb3ItaW50ZXJwb2xhdGlvbjpzUkdCO2NvbG9yLWludGVycG9sYXRpb24tZmlsdGVyczpsaW5lYXJSR0I7c29saWQtY29sb3I6IzAwMDAwMDtzb2xpZC1vcGFjaXR5OjE7ZmlsbDojMDA4MmM5O2ZpbGwtb3BhY2l0eToxO2ZpbGwtcnVsZTpub256ZXJvO3N0cm9rZTpub25lO3N0cm9rZS13aWR0aDo1LjU2NTkwMDMzO3N0cm9rZS1saW5lY2FwOmJ1dHQ7c3Ryb2tlLWxpbmVqb2luOm1pdGVyO3N0cm9rZS1taXRlcmxpbWl0OjEwO3N0cm9rZS1kYXNoYXJyYXk6bm9uZTtzdHJva2UtZGFzaG9mZnNldDowO3N0cm9rZS1vcGFjaXR5OjE7Y29sb3ItcmVuZGVyaW5nOmF1dG87aW1hZ2UtcmVuZGVyaW5nOmF1dG87c2hhcGUtcmVuZGVyaW5nOmF1dG87dGV4dC1yZW5kZXJpbmc6YXV0bztlbmFibGUtYmFja2dyb3VuZDphY2N1bXVsYXRlIiBkPSJtIDY2LjQwNzg5Niw5LjM3NSBjIC0xMS44MDUyNzEsMCAtMjEuODExMjE3LDguMDAzMTk2IC0yNC45MTIzOTIsMTguODQ2NjIxIC0yLjY5NTI0NSwtNS43NTE1MTcgLTguNTM1OTM0LC05Ljc4MDkzOCAtMTUuMjYzMzk0LC05Ljc4MDkzOCAtOS4yNTE4NSwwIC0xNi44NTcxMSw3LjYwNTI2MyAtMTYuODU3MTEsMTYuODU3MTA4IDAsOS4yNTE4MzMgNy42MDUyNiwxNi44NjA1NjcgMTYuODU3MTEsMTYuODYwNTY3IDYuNzI3NDYsMCAxMi41NjgxNDksLTQuMDMxODg1IDE1LjI2MzM5NSwtOS43ODQ0MTIgMy4xMDExNzUsMTAuODQ0MjUgMTMuMTA3MTIsMTguODUwMTA2IDI0LjkxMjM5MSwxOC44NTAxMDYgMTEuNzE3OTY0LDAgMjEuNjcyODksLTcuODg1MTExIDI0Ljg1MzM4MiwtMTguNjA3MDQ4IDIuNzQ1MDM2LDUuNjIxOTM0IDguNTEzNDM2LDkuNTQxMzU0IDE1LjE0NTM0Miw5LjU0MTM1NCA5LjI1MTg1LDAgMTYuODYwNTcsLTcuNjA4NzM0IDE2Ljg2MDU3LC0xNi44NjA1NjcgMCwtOS4yNTE4NDUgLTcuNjA4NzIsLTE2Ljg1NzEwOCAtMTYuODYwNTcsLTE2Ljg1NzEwOCAtNi42MzE5MDYsMCAtMTIuNDAwMzA2LDMuOTE2OTY1IC0xNS4xNDUzNDIsOS41Mzc4OTEgQyA4OC4wODA3ODYsMTcuMjU3NDc1IDc4LjEyNTg2LDkuMzc1IDY2LjQwNzg5Niw5LjM3NSBaIG0gMCw5Ljg5NTUxOCBjIDguOTExNjQ4LDAgMTYuMDMwNzQ4LDcuMTE1NjUzIDE2LjAzMDc0OCwxNi4wMjcyNzMgMCw4LjkxMTYwNSAtNy4xMTkxLDE2LjAzMDczNyAtMTYuMDMwNzQ4LDE2LjAzMDczNyAtOC45MTE1OTMsMCAtMTYuMDI3MjQ3LC03LjExOTEzMiAtMTYuMDI3MjQ3LC0xNi4wMzA3MzcgMCwtOC45MTE2MiA3LjExNTY1MywtMTYuMDI3MjcxIDE2LjAyNzI0NywtMTYuMDI3MjczIHogTSAyNi4yMzIxMSwyOC4zMzYyMDIgYyAzLjkwNDM4LDAgNi45NjUwNSwzLjA1NzE4OCA2Ljk2NTA1LDYuOTYxNTg5IDAsMy45MDQzODYgLTMuMDYwNjcsNi45NjUwNDkgLTYuOTY1MDUsNi45NjUwNDkgLTMuOTA0MzksMCAtNi45NjE2MSwtMy4wNjA2NjMgLTYuOTYxNjEsLTYuOTY1MDQ5IDAsLTMuOTA0NDAxIDMuMDU3MjIsLTYuOTYxNTg5IDYuOTYxNjEsLTYuOTYxNTg5IHogbSA4MC4xNzQ1MSwwIGMgMy45MDQ0MiwwIDYuOTY1MDYsMy4wNTcxODggNi45NjUwNiw2Ljk2MTU4OSAwLDMuOTA0Mzg2IC0zLjA2MDY2LDYuOTY1MDQ5IC02Ljk2NTA2LDYuOTY1MDQ5IC0zLjkwNDM2LDAgLTYuOTYxNTc2LC0zLjA2MDY2MyAtNi45NjE1NzYsLTYuOTY1MDQ5IDAsLTMuOTA0NDAxIDMuMDU3MjI2LC02Ljk2MTU4OSA2Ljk2MTU3NiwtNi45NjE1ODkgeiIgaWQ9InBhdGgxMDUyIi8+PHBhdGggaWQ9InBhdGgxMTc0IiBkPSJtIDIxLjIzNTY5Myw2OS4wNDM3NTYgYyAtMC4zMjkyNiwwIC0wLjQ3MTQ3LDAuMTg3OTM2IC0wLjQ3MTQ3LDAuNTE3MjQyIFYgODMuMjAzNjggYyAwLDAuMzI5MjcgMC4xNDIyMSwwLjUxNDk1IDAuNDcxNDcsMC41MTQ5NSBoIDAuMzc3NjMgYyAwLjMyOTI3LDAgMC41MTQ5NCwtMC4xODU2OCAwLjUxNDk0LC0wLjUxNDk1IFYgNzEuODc0ODMzIGwgNy40NDczLDExLjU1NzcyNyBjIDAuMDMyNCwwLjA1MDUgMC4wNjc3LDAuMDg0MiAwLjEwMjk5LDAuMTIxMjMgMC4wMTA2LDAuMDEyNSAwLjAxNzksMC4wMjU2IDAuMDI5OCwwLjAzNjYgMC4wMzE3LDAuMDI4OSAwLjA2NjUsMC4wNDQgMC4xMDA2NSwwLjA2MTggMC4wMTksMC4wMSAwLjAzMzgsMC4wMjQ3IDAuMDU1LDAuMDMyIDAuMDE0OCwwLjAwNSAwLjAzMDQsMC4wMDIgMC4wNDU4LDAuMDA2IDAuMDUyNSwwLjAxMzUgMC4xMDYxOCwwLjAyNzUgMC4xNjkzNiwwLjAyNzUgaCAwLjM3NTM0IGMgMC4zMjkyNiwwIDAuNDcxNDYsLTAuMTg1NjcgMC40NzE0NiwtMC41MTQ5NSBWIDY5LjU2MDc2OCBjIDAsLTAuMzI5MzA1IC0wLjE0MjIsLTAuNTE3MjQxIC0wLjQ3MTQ2LC0wLjUxNzI0MSBoIC0wLjM3NTM0IGMgLTAuMzI5MjksMCAtMC41MTcyNCwwLjE4NzkzNiAtMC41MTcyNCwwLjUxNzI0MSBWIDgwLjg5MDExIGwgLTcuNDQ3MywtMTEuNTU3NzE2IGMgLTAuMDI1NCwtMC4wMzkzOSAtMC4wNTYxLC0wLjA2MzM5IC0wLjA4NDcsLTAuMDkzOSAtMC4wODYsLTAuMTIxNjExIC0wLjIyMjIsLTAuMTk0NTQ1IC0wLjQxNjU0LC0wLjE5NDU0NSB6IG0gODkuNDIwMTU3LDAuMTg3Njc2IGMgLTAuMzI5MjYsMCAtMC4xODc2NywwLjE4Nzk1NiAtMC4xODc2NywwLjUxNzI0MSB2IDQuNjU3NDE3IGMgMCwwLjQ3MDM3IDAuMDQ1NiwwLjc5ODcyIDAuMDQ1NiwwLjc5ODcyIGggLTAuMDQ1NiBjIDAsMCAtMC44OTQxOSwtMi4wNjg5MyAtMy4zODcyMiwtMi4wNjg5MyAtMi43MjgyMSwwIC00LjY1NzcxLDIuMTYzNzIgLTQuNTYzNTcsNS4zNjIzMSAwLDMuMTk4NjIgMS43NDAyNCw1LjQxMDQxIDQuNTE1NTEsNS40MTA0MSAyLjY4MTE4LDAgMy41NzQ5LC0yLjE2NTA4IDMuNTc0OSwtMi4xNjUwOCBoIDAuMDQ4IGMgMCwwIC0wLjA5MzksMC4yODI4MyAtMC4wOTM5LDAuNjU5MTMgdiAwLjc5ODc0IGMgMCwwLjMyOTI2IDAuMTg3OTYsMC40NzE0OCAwLjUxNzI2LDAuNDcxNDggaCAwLjMyOTU1IGMgMC4zMjkyNywwIDAuNDY5MTcsLTAuMTg3OTggMC40NjkxNywtMC41MTcyNCBWIDY5Ljc0ODY3MyBjIDAsLTAuMzI5Mjg1IC0wLjUxNzU0LC0wLjUxNzI0MSAtMC44NDY4MSwtMC41MTcyNDEgeiBtIC0zNi41NDk4NTksMC4wNDgxIGMgLTAuMzI5Mjc2LDAgLTAuMTM5NjEsMC4xODc5NzYgLTAuMTM5NjEsMC41MTcyNDEgViA4MS4zMjAxNyBjIDAsMi4yNTc4MyAxLjUwMzc2NiwyLjU0MDM5IDIuMzUwNDYzLDIuNTQwMzkgMC4zNzYzMDEsMCAwLjUxNzIxNywtMC4xODc5NiAwLjUxNzIxNywtMC41MTcyMSB2IC0wLjMyOTU4IGMgMCwtMC4zMjkyNiAtMC4xODgyMTIsLTAuNDY5MTggLTAuNDIzMzk0LC0wLjQ2OTE4IC0wLjQ3MDQwNSwtMC4wNDcgLTEuMDgwMjQ5LC0wLjE4ODg3IC0xLjA4MDI0OSwtMS41MDU5NCBWIDY5Ljc5Njc3IGMgMCwtMC4zMjkyNjYgLTAuNTE3NTMxLC0wLjUxNzI0MSAtMC44NDY4MDcsLTAuNTE3MjQxIHogTSA1Ny4yMjAyNjYsNzAuNTAxNjkgYyAtMC4zMjkyNywwIC0wLjUxNzIzOCwwLjE4Nzk3NSAtMC41MTcyMzgsMC41MTcyNCB2IDIuNDQ2NTkgMS4xNzYzOCA1LjMxNDIzIGMgMCwyLjQ0NTk5IDEuMzY1MTA1LDMuODEwNjQgMy42MjI5NDYsMy44MTA2NCAwLjQyMzM0LDAgMC41NjMwMTEsLTAuMTM5OTMgMC41NjMwMTEsLTAuNDY5MTggdiAtMC4yODM4IGMgMCwtMC4zNzYyOSAtMC4xMzk2NzEsLTAuNDcwMjQgLTAuNTYzMDExLC0wLjUxNzI0IC0wLjc5OTY1MiwtMC4wNDcgLTIuMjU4OTA1LC0wLjMyOTEyIC0yLjI1ODkwNSwtMi43MjgwOSB2IC01LjE3NDY0IGggMi4xMTcwMDkgYyAwLjMyOTI2OCwwIDAuNTE3MjM4LC0wLjEzOTkgMC41MTcyMzgsLTAuNDY5MTggdiAtMC4xNDE5IGMgMCwtMC4zMjkyNiAtMC4xODc5NywtMC41MTcyMiAtMC41MTcyMzgsLTAuNTE3MjIgaCAtMi4xMTcwMDkgdiAtMi40NDY1OSBjIDAsLTAuMzI5MjY1IC0wLjEzOTkwOSwtMC41MTcyNCAtMC40NjkxNzcsLTAuNTE3MjQgeiBtIC0xOC43MzQ5NjMsMi42MzQyNyBjIC0yLjgyMjI5LDAgLTUuMDgxOTIsMi4wMjM1OSAtNS4xMjg4OCw1LjQxMDM3IDAsMy4xOTg1OSAyLjM1Mjg5LDUuNDA4MDkgNS40MTAzOSw1LjQwODA5IDEuNjQ2MzI4LDAgMi44Njg1MiwtMC43MDQ5NSAzLjQzMjk4NiwtMS4xMjgzMSAwLjIzNTI2LC0wLjE4ODE0IDAuMjgzMDE0LC0wLjQyMzkyIDAuMTQxODk2LC0wLjY1OTEyIGwgLTAuMTQxODk2LC0wLjIzMzQ2IGMgLTAuMTQxMTE1LC0wLjI4MjIzIC0wLjM3NDYxMiwtMC4zMzAwNSAtMC42NTY4NDYsLTAuMTQxODggLTAuNDcwMzgzLDAuMzc2MjkgLTEuNDEzMjk1LDAuOTQwNjQgLTIuNzMwMzcxLDAuOTQwNjQgLTIuMTE2NzA5LDAgLTMuOTUxMzE5LC0xLjUwNjA0IC0zLjk5ODI3OSwtNC4xNDAxOSBoIDcuNDc5MzMxIGMgMC4yODIyNDcsMCAwLjUxNzIzOCwtMC4yMzUwMSAwLjUxNzIzOCwtMC41MTcyNSAwLC0yLjk2MzQgLTEuNTUwMjkxLC00LjkzODg5IC00LjMyNTU2OSwtNC45Mzg4OSB6IG0gMjkuMjIzODgzLDAgYyAtMy4wNTc0ODIsMCAtNS40MDkyMDMsMi4yNTc1NSAtNS40NTYxNjEsNS40NTYxNCAwLDMuMTk4NiAyLjM1Mjg5Niw1LjQxMDM5IDUuNDEwMzg3LDUuNDEwMzkgMS44ODE1NDEsMCAzLjE1MTMwNywtMC44OTQ5MyAzLjY2ODcxOCwtMS4zMTgyOCAwLjIzNTI2MiwtMC4yMzUyIDAuMjgwNzI5LC0wLjQyMjY1IDAuMTM5NjE5LC0wLjcwNDkgTCA3MS4zMzIxMyw4MS43OTE2NSBjIC0wLjE4ODEzNiwtMC4yODIyNSAtMC4zNzY5MDIsLTAuMzMwMDUgLTAuNjU5MTMxLC0wLjE0MTkxIC0wLjQ3MDM4MywwLjQyMzM0IC0xLjQ1NzU1MiwxLjA4MjU1IC0yLjkxNTc1MSwxLjA4MjU1IC0yLjI1NzgyNiwwIC00LjA0NjM0OCwtMS42OTQxOSAtNC4wNDYzNDgsLTQuMTQwMTkgMCwtMi40OTMwMiAxLjc4ODUyMiwtNC4xODU5NiA0LjA0NjM0OCwtNC4xODU5NiAxLjIyMzAwOCwwIDIuMTE1ODE2LDAuNjExMzcgMi41ODYxOCwwLjk0MDY1IDAuMjgyMjQxLDAuMTg4MDcgMC41MTY3NDgsMC4xODgzOCAwLjcwNDkxMywtMC4wOTM4IGwgMC4xNDE5LC0wLjIzNTcyIGMgMC4yMzUyNzEsLTAuMjgyMjQgMC4xODcxMjUsLTAuNTE2NzcgLTAuMDQ4MSwtMC43MDQ5IC0wLjUxNzQyMiwtMC40MjMzNyAtMS42NDU1MTUsLTEuMTc2MzggLTMuNDMyOTg2LC0xLjE3NjM4IHogbSAxNS44OTkzMDEsMCBjIC0zLjAxMDQ1MSwwIC01LjQ1NjE1NiwyLjMwNDgyIC01LjQ1NjE1Niw1LjM2MjMxIDAsMy4xMDQ1MSAyLjQ0NTcwNSw1LjQ1NjE1IDUuNDU2MTU2LDUuNDU2MTUgMy4wMTA0NzgsMCA1LjQ1NjE2OCwtMi4zNTE2NCA1LjQ1NjE2OCwtNS40NTYxNSAwLC0zLjA1NzQ5IC0yLjQ0NTY5LC01LjM2MjMxIC01LjQ1NjE2OCwtNS4zNjIzMSB6IG0gLTMwLjQyOTk5MSwwLjE1NzkzIGMgLTAuMTE1MTgsMC4wMTg0IC0wLjIyNjAzNywwLjA5NTkgLTAuMzMxODU3LDAuMjIxOTcgbCAtMS45MDQxNjQsMi4yNjgwNSAtMS40MjM1NDYsMS42OTgxOCAtMi4xNTgyMDUsLTIuNTcwMTUgLTEuMTY5NTA1LC0xLjM5NjA4IGMgLTAuMTA1ODc2LC0wLjEyNjExIC0wLjIyNTc5NSwtMC4xOTUyNSAtMC4zNTAxNjMsLTAuMjA1OTcgLTAuMTI0MzU0LC0wLjAxIC0wLjI1Mzc5NiwwLjAzNjEgLTAuMzc5OTE5LDAuMTQxODkgbCAtMC4yODgzNzEsMC4yNDI1OCBjIC0wLjI1MjIyMywwLjIxMTY3IC0wLjIzOTAxLDAuNDQ1ODMgLTAuMDI3NDUsMC42OTgwNyBsIDEuOTA0MTY2LDIuMjY4MDMgMS41NzkxNzIsMS44ODM1NyAtMi4zMTE1NDMsMi43NTMyNiBjIC0wLjAwMjQsMC4wMDIgLTAuMDAzNSwwLjAwNSAtMC4wMDQ2LDAuMDA2IGwgLTEuMTY3MjE1LDEuMzg5MjMgYyAtMC4yMTE2NTMsMC4yNTIyMyAtMC4xODgxMzIsMC41MTg0MiAwLjA2NDA4LDAuNzMwMDkgbCAwLjI4ODM2OCwwLjI0MDMgYyAwLjI1MjIzOSwwLjIxMTY0IDAuNDgxODEzLDAuMTU4NDEgMC42OTM0NjUsLTAuMDkzOSBsIDEuOTAxODc2LC0yLjI2ODA2IDEuNDI1ODM0LC0xLjY5ODE4IDIuMTU4MjA0LDIuNTcyNDQgYyAxMGUtNCwwLjAwMiAwLjAwMzUsMC4wMDQgMC4wMDQ2LDAuMDA1IGwgMS4xNjQ5MjgsMS4zOTE1IGMgMC4yMTE2NTIsMC4yNTIyMyAwLjQ3NzgzNCwwLjI3MzM3IDAuNzMwMDgxLDAuMDYxNyBsIDAuMjg4MzcxLC0wLjI0MDMgYyAwLjI1MjIzNywtMC4yMTE2NSAwLjIzOTEzNCwtMC40NDU4MSAwLjAyNzQ2LC0wLjY5ODA1IGwgLTEuOTA0MTYxLC0yLjI3MDM0IC0xLjU3OTE3NywtMS44ODEyOSAyLjMxMTU0NiwtMi43NTU1NCBjIDAuMDAyNCwtMC4wMDIgMC4wMDM1LC0wLjAwNCAwLjAwNDYsLTAuMDA2IGwgMS4xNjcyMTQsLTEuMzg5MjEgYyAwLjIxMTY1MSwtMC4yNTIyNCAwLjE4ODEzMiwtMC41MTg0NCAtMC4wNjQwOCwtMC43MzAwOSBsIC0wLjI4ODM3MSwtMC4yNDAzIGMgLTAuMTI2MTEyLC0wLjEwNTg3IC0wLjI0NjQwOCwtMC4xNDY1NSAtMC4zNjE2MDcsLTAuMTI4MTUgeiBtIDM4LjY2MjMwOCwwLjA3NzkgYyAtMC4zMjkyOCwwIC0wLjQ3MTQ4LDAuMTg3OTYgLTAuNDcxNDgsMC41MTcyMyB2IDYuMDY3MjIgYyAwLDIuNjgxMiAxLjk3NTcsMy45OTgyOSA0LjQyMTY5LDMuOTk4MjkgMi40NDYsMCA0LjQyMTY5NiwtMS4zMTcwOSA0LjQyMTY5NiwtMy45OTgyOSB2IC02LjA2NzIzIGMgMC4wNDcsLTAuMzI5MjYgLTAuMTM5OTEsLTAuNTE3MjMgLTAuNDY5MTc2LC0wLjUxNzIzIGggLTAuMzc3NjMgYyAtMC4zMjkyNywwIC0wLjUxNzI0LDAuMTg3OTcgLTAuNTE3MjQsMC41MTcyMyB2IDUuNjkxODkgYyAwLDEuNTk5MzEgLTEuMDM1LDMuMDU3NjYgLTMuMDU3NjUsMy4wNTc2NiAtMS45NzU2LDAgLTMuMDU3NjMsLTEuNDU4MzUgLTMuMDU3NjMsLTMuMDU3NjYgdiAtNS42OTE4OSBjIDAsLTAuMzI5MjYgLTAuMTg3OTcsLTAuNTE3MjMgLTAuNTE3MjYsLTAuNTE3MjMgeiBtIC01My40MDM1NjEsMC45NDA2MyBjIDEuNTA1MjI2LDAgMi44MjE2MSwxLjA4MTU1IDIuOTE1NzUzLDMuMjQ1MzEgaCAtNi40OTA2MzMgYyAwLjMyOTI3LC0yLjExNjc0IDEuODM0NDcsLTMuMjQ1MzEgMy41NzQ4OCwtMy4yNDUzMSB6IG0gNDUuMTcxMjQ0LDAuMDkzOSBjIDIuMjEwODA5LDAgMy45OTgzMDMsMS43NDAyMyAzLjk5ODMwMyw0LjA5MjE0IDAsMi40NDU5OCAtMS43ODc0OTQsNC4yMzQwMSAtMy45OTgzMDMsNC4yMzQwMSAtMi4yMTA3ODEsMCAtMy45OTkzODUsLTEuODM1MDUgLTQuMDQ2MzMyLC00LjIzNDAxIDAsLTIuMzA0ODggMS44MzU1NTEsLTQuMDkyMTQgNC4wNDYzMzIsLTQuMDkyMTQgeiBtIDIzLjU2NjMwMywwIGMgMi4yMTA4MiwwIDMuMjkzMzksMi4wMjM0NiAzLjI5MzM5LDQuMTQwMiAwLDIuOTYzNCAtMS42MDEwMiw0LjE4NTk1IC0zLjM0MTQ0LDQuMTg1OTUgLTEuOTI4NTYsMCAtMy4yNDQxMywtMS42NDU5IC0zLjI5MTA4LC00LjE4NTk1IDAsLTIuNjM0MTUgMS41MDQ2NSwtNC4xNDAyIDMuMzM5MTMsLTQuMTQwMiB6IiBzdHlsZT0iZmlsbDojMDA4MmM5O2ZpbGwtb3BhY2l0eToxO3N0cm9rZS13aWR0aDowLjQ3MDM4NTIyIi8+PC9zdmc+;" parent="8" vertex="1">
                    <mxGeometry x="118.75" y="340" width="122.5" height="86.88" as="geometry"/>
                </mxCell>
                <mxCell id="65" style="edgeStyle=none;html=1;exitX=1;exitY=0.5;exitDx=0;exitDy=0;" edge="1" parent="8" source="59" target="39">
                    <mxGeometry relative="1" as="geometry"/>
                </mxCell>
                <mxCell id="59" value="" style="shape=image;imageAspect=0;aspect=fixed;verticalLabelPosition=bottom;verticalAlign=top;image=data:image/svg+xml,PHN2ZyB4bWxuczp4bGluaz0iaHR0cDovL3d3dy53My5vcmcvMTk5OS94bGluayIgeG1sbnM9Imh0dHA6Ly93d3cudzMub3JnLzIwMDAvc3ZnIiB2ZXJzaW9uPSIxLjEiIHZpZXdCb3g9IjAgMCAyMDkgMzE4IiBoZWlnaHQ9IjMxOHB4IiB3aWR0aD0iMjA5cHgiPgogICAgPHRpdGxlPlRyYWVmaWtQcm94eS12ZXJ0aWNhbC1sb2dvLWNvbG9yPC90aXRsZT4KICAgIDxnIGZpbGwtcnVsZT0iZXZlbm9kZCIgZmlsbD0ibm9uZSIgc3Ryb2tlLXdpZHRoPSIxIiBzdHJva2U9Im5vbmUiIGlkPSJUcmFlZmlrUHJveHktdmVydGljYWwtbG9nby1jb2xvciI+CiAgICAgICAgPHBhdGggZmlsbC1ydWxlPSJub256ZXJvIiBmaWxsPSIjMjRBMUMxIiBpZD0iU2hhcGUiIGQ9Ik0xMDUuODIwNDY4LDAuOTY4NzUgQzExNC4wNzkzNDgsMC45Njg3NSAxMjEuNDIwNjkyLDYuNzk4NzE3NDkgMTIxLjQyMDY5MiwxMy45Nzk4OTIxIEMxMjEuNDIwNjkyLDIxLjE2MDc0MTQgMTE0LjQzMDYzMywyNi45OTEwMzQyIDEwNS44MjA0NjgsMjYuOTkxMDM0MiBDMTA0LjgzNTM0NywyNi45OTEwMzQyIDEwMy41NDk1NCwyNi44Mjk2MTcgMTAxLjk2MzA0NywyNi41MDY3ODI4IEMxMDAuNzMwNzE3LDI2LjI1NjAwNzMgOTkuNDQ5MzM2NywyNi40NjA2NzU2IDk4LjM1NjIwNzQsMjcuMDgyODc1OSBMNDIuNDIzNjI5Niw1OC45MTkyNDI0IEM0MS4xNzUzOTkxLDU5LjYyOTcyNSA0MC43Mzg5ODkxLDYxLjIxODQxODMgNDEuNDQ4ODgwNiw2Mi40Njc2ODgxIEM0MS42ODI2MTYyLDYyLjg3OTAxNzEgNDIuMDIzOTkyOSw2My4yMTg3NzQxIDQyLjQzNjI3OTMsNjMuNDUwNDAyMiBMMTAzLjA2ODU3LDk3LjUxNDQ0NTQgQzEwNC42NDI2ODksOTguMzk4ODA3IDEwNi41NjI0NTIsOTguNDAyODYzOCAxMDguMTQwMjg4LDk3LjUyNTE2MjkgTDE2OS4xMDExNjEsNjMuNjE0NTQ0NSBDMTcwLjM1NjI5Niw2Mi45MTYzNTI0IDE3MC44MDgyNTgsNjEuMzMyMDIwNiAxNzAuMTEwNjQ3LDYwLjA3NTg0MDYgQzE2OS44Nzg3ODQsNTkuNjU4MzI3NiAxNjkuNTM2NTcxLDU5LjMxMjc0MjMgMTY5LjEyMTUwMiw1OS4wNzY5NDkyIEwxNTAuMTAxMzMyLDQ4LjI3MTkxNzUgQzE0OC41MjUyNTUsNDcuMzc2NTc1NiAxNDYuNTk3MTE1LDQ3LjM2NzAzMzEgMTQ1LjAxMjI2OSw0OC4yNDY3MzEyIEwxMjQuOTMyNjY1LDU5LjM5MjI4MzYgQzEyNC40MjYxNzEsNTkuNjczNDM1MSAxMjQuMDkyNzE5LDYwLjE4MjE3ODEgMTI0LjAzMTA5NCw2MC43NTA2NDI0IEwxMjQuMDIwNzU1LDYwLjk0MjExMjEgTDEyNC4wMjA3NTUsNjAuOTQyMTEyMSBDMTI0LjAyMDc1NSw2OC4xMjI5NjE0IDExNy4wMzA2OTcsNzMuOTUzMjU0MSAxMDguNDIwNTMxLDczLjk1MzI1NDEgQzk5LjgxMDM2NTIsNzMuOTUzMjU0MSA5Mi44MTk5OTUzLDY4LjEyMjk2MTQgOTIuODE5OTk1Myw2MC45NDIxMTIxIEM5Mi44MTk5OTUzLDUzLjc2MDkzNzUgOTkuODEwMzY1Miw0Ny45MzA5NyAxMDguNDIwNTMxLDQ3LjkzMDk3IEMxMDguNzQwNDExLDQ3LjkzMDk3IDEwOS4xMDc3MDUsNDcuOTQ4MzAwOCAxMDkuNTIyNDEyLDQ3Ljk4Mjk2MjUgTDExMC4xODAwMzIsNDguMDQ3OTUzMiBMMTEwLjE4MDAzMiw0OC4wNDc5NTMyIEwxMTAuOTA4NzczLDQ4LjEzODk0MDEgTDExMC45MDg3NzMsNDguMTM4OTQwMSBDMTEyLjAyMDA0LDQ4LjI5MDEzNTUgMTEzLjE1MDM2OSw0OC4wNzc3MTYzIDExNC4xMzExNDUsNDcuNTMzMzczOSBMMTQzLjgyNTc2NiwzMS4wNTI1MDM5IEMxNDYuMDk5NjcyLDI5Ljc5MDM5MTUgMTQ4Ljg0NDY3OCwyOS43NDg2NDkzIDE1MS4xNDgwMDQsMzAuOTIyNzQ3NCBMMTUxLjQ1OTI3MSwzMS4wOTAzODc0IEwxOTIuOTI1MjkyLDU0LjY0NjkwOTkgQzE5OC4xMjQyODksNTcuNjAwNDE5NyAxOTguMTg0MDEsNjUuMDI4NjMwNSAxOTMuMTQ0MTI2LDY4LjA5NjcyNDMgTDE5Mi44NjQxNjYsNjguMjU5Njk3NyBMMTY1LjEyNTY1NSw4My42ODg3Nzk5IEMxNjMuODcwNTAxLDg0LjM4NjkzODIgMTYzLjQxODQ5Niw4NS45NzEyNTc3IDE2NC4xMTYwNzMsODcuMjI3NDU2NiBDMTY0LjM2MTcxMyw4Ny42Njk4MDQxIDE2NC43MzA4OTgsODguMDMwODY3NyAxNjUuMTc4NDI3LDg4LjI2NjQzOTggTDE5Mi42NTMxODksMTAyLjcyODcwNSBDMTk4LjEwNjc5OSwxMDUuNTk5MzM2IDE5OC4yMzc4NTUsMTEzLjM2NzU1MSAxOTIuODg0MTg1LDExNi40MjA4MTMgTDEwOS40NDQ3NzksMTY0LjAwNzMxIEMxMDcuMDQ5MjkyLDE2NS4zNzM0ODQgMTA0LjExMTEzNCwxNjUuMzcyNTAyIDEwMS43MTY1NiwxNjQuMDA0NzI2IEwxOC43NTE5MTI5LDExNi42MTU0OTIgQzEzLjM5MTg4MjgsMTEzLjU1Mzg1NCAxMy41MzkxMDQxLDEwNS43NzAwMDQgMTkuMDExMDY2NSwxMDIuOTEzNTggTDQ2Ljc4NTUxMTQsODguNDEzNzIyMSBDNDguMDU4Njg1OSw4Ny43NDkwNTE4IDQ4LjU1MjQyNDMsODYuMTc3MjU4NyA0Ny44ODgzMDcsODQuOTAzMDI0IEM0Ny42NTQ3ODksODQuNDU0OTc1NSA0Ny4yOTU5NzQ2LDg0LjA4NDY3IDQ2Ljg1NTY3NDIsODMuODM3MzIwOCBMMTguNzQ3NjY2Niw2OC4wNDY5ODQ4IEMxMy41NDkzMDIzLDY1LjEyNjQ5MTYgMTMuNDM2NTUxMyw1Ny43MjU3NTc0IDE4LjQzMzE5OTMsNTQuNjE4MDYyOCBMMTguNzEwODExMSw1NC40NTI4NjI1IEw4Ny43NDM2NDYxLDE1LjE2MjI0NzUgQzg4LjgzNjUyMjEsMTQuNTQwMjI1NyA4OS42NjQyOTY4LDEzLjU0NDg0NzIgOTAuMDc4OTc2NiwxMi4zNjM4MjcgTDkwLjE2NzQ2MTYsMTIuMDg3NDYzNCBMOTAuMTY3NDYxNiwxMi4wODc0NjM0IEM5Mi41OTA2MTYxLDQuODY2MjE0NzcgOTguMTA0OTIzNiwwLjk2ODc1IDEwNS44MjA0NjgsMC45Njg3NSBaIE0xNDQuMzQwMjc4LDk2LjgxNDkzNjggTDExMC4yNTAwOTksMTE2LjQzMDgzNCBMMTA5LjkzNjk2MywxMTYuNjAxNjE1IEMxMDcuNjE5Mzc4LDExNy43OTc2MTEgMTA0Ljg0ODQ5MSwxMTcuNzUyODM3IDEwMi41NjMxNDUsMTE2LjQ2MzMyNSBMNjguNTgxNzQwNSw5Ny4yOTA5NTY3IEM2Ny4wNTMyMzQzLDk2LjQyODU3MDggNjUuMTkzOTg0Niw5Ni4zOTkxODc0IDYzLjYzOTE2NTMsOTcuMjEyODQ0NyBMNDQuMDUxMjkyNSwxMDcuNDYzNDM1IEM0Mi43ODA5NTM2LDEwOC4xMjgyMiA0Mi4yODgyNzMsMTA5LjcwMDM2NSA0Mi45NTA4NTk2LDExMC45NzQ5MTkgQzQzLjE4MDk0NDYsMTExLjQxNzUxMSA0My41MzMwMjU2LDExMS43ODQzODcgNDMuOTY1MTM0LDExMi4wMzE4MTMgTDEwMy44MTEyLDE0Ni4yOTk4OSBDMTA1LjQwNDAwNywxNDcuMjExOTM3IDEwNy4zNTgzOCwxNDcuMjEyNTc1IDEwOC45NTE3NzgsMTQ2LjMwMTU2OSBMMTY5LjMxNDczNSwxMTEuNzg5NzQ2IEMxNzAuNTU5NTYsMTExLjA3ODAzMSAxNzAuOTkzNjQsMTA5LjQ4ODU5NSAxNzAuMjg0Mjc5LDEwOC4yMzk2MzkgQzE3MC4wMzkxNTcsMTA3LjgwODA1OCAxNjkuNjc2MDY0LDEwNy40NTU4NjMgMTY5LjIzNzg3NiwxMDcuMjI0NjQ1IEwxNDkuMzM2NjM1LDk2LjcyMzMzODkgQzE0Ny43NjUyNTksOTUuODk0MTY5NiAxNDUuODgwNDE0LDk1LjkyODcyNDMgMTQ0LjM0MDI3OCw5Ni44MTQ5MzY4IFoiLz4KICAgICAgICA8cGF0aCBmaWxsLXJ1bGU9Im5vbnplcm8iIGZpbGw9IiMwMDAwMDAiIGlkPSJDb21iaW5lZC1TaGFwZSIgZD0iTTE3Ny42NjYyOTYsMTg4IEMxNzguNzI3MDU2LDE4OCAxNzkuNjQwNTAzLDE4OC4zNTQxNjkgMTgwLjQwNjYyOSwxODkuMDYyMzc0IEMxODEuMTQ5MTU1LDE4OS43MjM0NDcgMTgxLjU0NTE5MSwxOTAuNjE1ODQzIDE4MS41OTQ2OTYsMTkxLjczOTU2NSBMMTgxLjYsMTkxLjk4MzkwNCBMMTgxLjYsMjI2Ljk2OCBMMjAxLjcxMjA1MywyMDguODI4NTQzIEMyMDIuMjk2NzgsMjA4LjMzMTQ1NyAyMDIuOTE3NDE0LDIwOC4wNTgwMDYgMjAzLjU3Mzk2LDIwOC4wMDgyODcgTDIwMy43OTQxMzksMjA4IEMyMDQuNzM5MTYxLDIwOCAyMDUuNTY2MDg4LDIwOC4zNjM0NCAyMDYuMjc0OTIsMjA5LjA5MDE4OSBDMjA3LjAxMzIwNywyMDkuODE3MDIzIDIwNy4zODIzNzMsMjEwLjYzMTAyOSAyMDcuMzgyNDExLDIxMS41MzIyMSBDMjA3LjM4MjM3NiwyMTIuMjc4NDIgMjA3LjA4NDU4MSwyMTIuOTYzNTI1IDIwNi40ODkwMjUsMjEzLjU4NzUyNSBMMjA2LjMxOTIxOSwyMTMuNzU2MTkyIEwxOTAuMjM4NDQzLDIyNy45Mjg2NDQgTDIwNy44MjU0MSwyNDYuMTU2NTg4IEMyMDguNDc1MDk1LDI0Ni44MjUyNCAyMDguOCwyNDcuNTgxMTA0IDIwOC44LDI0OC40MjQxNzkgQzIwOC44LDI0OS4zNTQ0OCAyMDguNDE2MDI5LDI1MC4xODMwMTggMjA3LjY0ODIxMiwyNTAuOTA5ODA3IEMyMDYuOTA5ODQzLDI1MS42MzY2MDIgMjA2LjA1MzM4NiwyNTIgMjA1LjA3ODgyOCwyNTIgQzIwNC4xMTg5NjksMjUyIDIwMy4yODY0NjUsMjUxLjY0OTA2MyAyMDIuNTgxMzE0LDI1MC45NDcxOSBMMjAyLjQyMDg0OCwyNTAuNzc4OTg5IEwxODEuNiwyMjguOTc2IEwxODEuNiwyNDcuOTcxODM2IEMxODEuNiwyNDkuMTI4NjQzIDE4MS4yNDA2MywyNTAuMDY2OTQxIDE4MC41MjE5MzcsMjUwLjc4NjczIEwxODAuMzYyNDMyLDI1MC45Mzc2MjYgQzE3OS41NjY4MzYsMjUxLjY0NTg3NSAxNzguNjIzOTI3LDI1MiAxNzcuNTMzNzA0LDI1MiBDMTc2LjQ0MzQ1NiwyNTIgMTc1LjUxNTI3NSwyNTEuNjYwNjMyIDE3NC43NDkxNzQsMjUwLjk4MTg5NiBDMTc0LjAzNDEyOCwyNTAuMzIwODYzIDE3My42NTI3NzYsMjQ5LjQwMjc2MiAxNzMuNjA1MTA3LDI0OC4yMjc1OTIgTDE3My42LDI0Ny45NzE4MzYgTDE3My42LDE5MS45ODM5MDQgQzE3My42LDE5MC43NDQ1MDggMTczLjk5Nzc4MiwxODkuNzcwNjY3IDE3NC43OTMzNzEsMTg5LjA2MjM3NCBDMTc1LjYxODQxLDE4OC4zNTQxNjkgMTc2LjU3NjA0OCwxODggMTc3LjY2NjI5NiwxODggWiBNMTYxLjY2NjI5NiwyMDcuMiBDMTYyLjcyNzA1NiwyMDcuMiAxNjMuNjQwNTAzLDIwNy41NjcyODYgMTY0LjQwNjYyOSwyMDguMzAxNzIxIEMxNjUuMTQ5MTU1LDIwOC45ODcyNzkgMTY1LjU0NTE5MSwyMDkuOTEyNzI2IDE2NS41OTQ2OTYsMjExLjA3ODA2OCBMMTY1LjYsMjExLjMzMTQ1NiBMMTY1LjYsMjQ3LjgyMjY0NCBDMTY1LjYsMjQ5LjEwNzk4NiAxNjUuMTg3NDU4LDI1MC4xMzMxOTcgMTY0LjM2MjQzMiwyNTAuODk4Mjc5IEMxNjMuNTY2ODM2LDI1MS42MzI3NiAxNjIuNjIzOTI3LDI1MiAxNjEuNTMzNzA0LDI1MiBDMTYwLjQ0MzQ1NiwyNTIgMTU5LjUxNTI3NSwyNTEuNjQ4MDYzIDE1OC43NDkxNzQsMjUwLjk0NDE4OCBDMTU4LjAzNDEyOCwyNTAuMjU4NjczIDE1Ny42NTI3NzYsMjQ5LjMwNjU2OCAxNTcuNjA1MTA3LDI0OC4wODc4NzQgTDE1Ny42LDI0Ny44MjI2NDQgTDE1Ny42LDIxMS4zMzE0NTYgQzE1Ny42LDIxMC4wNDYxNTcgMTU3Ljk5Nzc4MiwyMDkuMDM2MjQ3IDE1OC43OTMzNzEsMjA4LjMwMTcyMSBDMTU5LjYxODQxLDIwNy41NjcyODYgMTYwLjU3NjA0OCwyMDcuMiAxNjEuNjY2Mjk2LDIwNy4yIFogTTE1MC45MTg5MjIsMTg4IEwxNTAuOTE4LDE4OC4wMDMgTDE1MC45NzA1NjgsMTg4LjAwNTExIEMxNTIuNDM3NTM3LDE4OC4wOTMyNjEgMTUzLjYsMTg5LjMxMDg3NyAxNTMuNiwxOTAuOCBDMTUzLjYsMTkyLjI2MjYyNCAxNTIuNDc4NTQxLDE5My40NjMzMTggMTUxLjA0ODU4OCwxOTMuNTg5MTE2IEwxNTAuODc1Njc0LDE5My42IEwxNDYuNzI0MzIzLDE5My42IEMxNDUuNDg0NjYxLDE5My42MDAwNTcgMTQ0LjUxODg5NywxOTMuNzE2NzYgMTQzLjgyNzAyNCwxOTMuOTUwMTA5IEMxNDMuMTM1MTEzLDE5NC4xNTQzOTcgMTQyLjUxNTI5NSwxOTQuNzExMDcgMTQxLjk2NzU2OSwxOTUuNDY5NTg1IEMxNDEuNDQ4NjMxLDE5Ni4xOTkwMzQgMTQxLjI2MTI0MywxOTcuNTg0Mjk4IDE0MS4wNTk0NTYsMTk4Ljk4NDY4MyBDMTQwLjg5Nzk5OCwyMDAuMjY0NTc1IDE0MC44MTE4OTcsMjAxLjk3NjQ4MiAxNDAuODAxMTUsMjA0LjEyMDQwOCBMMTQwLjgsMjA0LjU4NjQzMyBMMTQwLjc5OSwyMDcuMTk5IEwxNDgsMjA3LjIgQzE0OS4zMjU0ODMsMjA3LjIgMTUwLjQsMjA4LjI3NDUxNyAxNTAuNCwyMDkuNiBDMTUwLjQsMjEwLjkyNTQ4MyAxNDkuMzI1NDgzLDIxMiAxNDgsMjEyIEwxNDAuOCwyMTEuOTk5IEwxNDAuOCwyNDcuOTcxODM2IEMxNDAuOCwyNDkuMTI4NjQzIDE0MC40NDA2MywyNTAuMDY2OTQxIDEzOS43MjE5MzcsMjUwLjc4NjczIEwxMzkuNTYyNDMyLDI1MC45Mzc2MjYgQzEzOC43NjY4MzYsMjUxLjY0NTg3NSAxMzcuODIzOTI3LDI1MiAxMzYuNzMzNzA0LDI1MiBDMTM1LjY0MzQ1NiwyNTIgMTM0LjcxNTI3NSwyNTEuNjYwNjMyIDEzMy45NDkxNzQsMjUwLjk4MTg5NiBDMTMzLjIzNDEyOCwyNTAuMzIwODYzIDEzMi44NTI3NzYsMjQ5LjQwMjc2MiAxMzIuODA1MTA3LDI0OC4yMjc1OTIgTDEzMi44LDI0Ny45NzE4MzYgTDEzMi44LDIxMS45OTkgTDEyNi40LDIxMiBDMTI1LjA3NDUxNywyMTIgMTI0LDIxMC45MjU0ODMgMTI0LDIwOS42IEMxMjQsMjA4LjI3NDUxNyAxMjUuMDc0NTE3LDIwNy4yIDEyNi40LDIwNy4yIEwxMzIuNzk5LDIwNy4xOTkgTDEzMi44LDIwMi40NDIwMTMgQzEzMi44LDE5Ny4yMTk2MDEgMTMzLjg5NTQ4MywxOTMuNTE0MjgxIDEzNi4wODY0ODcsMTkxLjMyNjAzOSBDMTM4LjE5OTIxMSwxODkuMTg3OTMxIDE0MS4wODkzMzQsMTg4LjA4MDYxIDE0NC43NTY4NjMsMTg4LjAwNDI0MyBMMTQ1LjE2NzU2NiwxODggTDE1MC45MTg5MjIsMTg4IFogTTEwMy42NjUyNTYsMjA3LjIwMDAwMyBDMTA3LjgzMzI2OSwyMDcuMjAwMDAzIDExMS43MDc0NzEsMjA4LjI3NDA2NiAxMTQuNTk1Mzk4LDIxMC4yMjQyMTkgQzExNi44ODYwMDQsMjExLjc3MTAzNyAxMTguNzQ2ODM3LDIxNC4xNTM4OCAxMTkuNDk4NTYxLDIxNi41MDI4NjYgQzExOS45MzAxODcsMjE3Ljg1MTU2OSAxMTkuOTk1ODAyLDIxOC4zNDk5NDQgMTE5Ljk5OTg5NywyMjAuMzA4ODk2IEMxMjAuMDAyMDk4LDIyMS41Mjc4MDQgMTE5Ljk2OTE1NCwyMjIuMzQ5OTY5IDExOS45MDIyOCwyMjIuNzMwOTA5IEMxMTkuMjI2NDE4LDIyNi41ODEwODMgMTE3LjYxNjU2NiwyMjkuMjQ4Mzk5IDExNC44MjIzMDYsMjMxLjE0NzY5OSBDMTEyLjU3NDM1NywyMzIuNjc1NjM4IDEwOS43NTExMzMsMjMzLjU2OTY5NyAxMDYuMDU4NzA3LDIzMy45MjI4NDIgQzEwNC4xOTk5NzMsMjM0LjEwMDYwNiAxMDAuODAwMzM3LDIzNC4wODM4MTcgOTguNTk3OTkwMiwyMzMuODg1OTI0IEM5Ni43Mjg4Nzc5LDIzMy43MTgwMTggOTQuNDMzNzI3OSwyMzMuNDIyNTY4IDkzLjQ1NDYxOCwyMzMuMjIzODk1IEM5Mi42MzUwNjQ4LDIzMy4wNTc1NjQgODkuODI4NTczNywyMzIuNTgxMjE2IDg5LjgwNTQ2NiwyMzIuNjA0NTM4IEM4OS43OTUyOTAyLDIzMi42MTQ5ODUgODkuNjYxNzUyMiwyMzMuNDY4MTUzIDg5LjUwODc1MjcsMjM0LjUwMDkyNSBDODkuMjY0NDY1OSwyMzYuMTQ5OTE5IDg5LjIyOTg2MDgsMjM2LjU2MTM3NyA4OS4yMjQ3MzUzLDIzNy44NzgwMzIgTDg5LjIyNDk4MzgsMjM4LjUyNDQxNiBDODkuMjMxMjI5MSwyMzkuMzE4MjM1IDg5LjI2Nzc3MDQsMjM5LjU2NzM5NiA4OS4zOTY4NjMzLDI0MC4wNjkzNjggQzg5LjkwNzc4MTcsMjQyLjA1NTk5OCA5MS4wMzM3MDg4LDI0My4zODQ4OTYgOTMuMDc2NDI3MSwyNDQuNDEyMjUyIEM5NS4wODU5MDgxLDI0NS40MjI4OTMgOTcuMTkyNDgzNywyNDUuODYwMjMzIDEwMC4zNzU0ODUsMjQ1LjkyNzY1NSBDMTAxLjc4NDY4LDI0NS45NTc3OSAxMDIuNTA2MzU0LDI0NS45MzY3NzcgMTAzLjM4Nzk3NiwyNDUuODQxOTE0IEMxMDUuNTI1MjA2LDI0NS42MTE1NDYgMTA2LjQ5OTEwNSwyNDUuMzU4Nzk3IDEwOS4zMzg1NywyNDQuMjk3NjcxIEMxMTAuMDQ1Nzg0LDI0NC4wMzMzNDMgMTEwLjc2NzUzLDI0My43OTI4MzYgMTEwLjk0MjQ1OSwyNDMuNzYzMTg3IEMxMTEuMzE3MzI5LDI0My42OTk2NSAxMTIuMDE2NDY2LDI0My44MzA4NTggMTEyLjQyMzkzNCwyNDQuMDQxMjg4IEMxMTMuMTU5NDAzLDI0NC40MjA5OTIgMTEzLjc3NzMyMSwyNDUuNDMzNjY0IDExMy43NzM0NzEsMjQ2LjI1Mjg3MSBDMTEzLjc2OTI3MywyNDcuMjA5OTIzIDExMy40NTE2NjUsMjQ3Ljc4OTYwOSAxMTIuNTE5NTcsMjQ4LjU0MzQ4NSBDMTEwLjI5MDkwMSwyNTAuMzQ2MDIzIDEwNy40NDUzMTMsMjUxLjQ1MTQ0IDEwNC4wNDg0NjQsMjUxLjgzNDI5MiBDMTAyLjgzNzE5MiwyNTEuOTcwODQyIDEwMC4wNzE2NjUsMjUxLjk5MDk1NiA5OC43MzU4NDc2LDI1MS44NzMwMzUgQzk0Ljk3Mzk2MzcsMjUxLjU0MDg4OCA5Mi4zNjIxNjQxLDI1MC44ODY4MiA4OS45NzUyNzUyLDI0OS42NzkyODYgQzg4LjExMjg0NzMsMjQ4LjczNzA2NyA4Ni42OTE4NzE1LDI0Ny41NjgxNTggODUuNjMwNTc0NywyNDYuMTA1MjQyIEM4NS40MjE5NTQ3LDI0NS44MTc2NjUgODUuMjM4NDY0OCwyNDUuNTY2MTgzIDg1LjE2ODMxMzQsMjQ1LjQ3MTQyMSBMODUuMTM4MzI4OSwyNDUuNDMxNjE5IEw4NS4xMzgzMjg5LDI0NS40MzE2MTkgQzg1LjEyODM0MTMsMjQ1LjQyMDU4MyA4NC45NTUwMjYzLDI0NS42MjgyMTcgODQuNzUzMTE0NywyNDUuODkyOTU4IEM4My44NjA2MTgyLDI0Ny4wNjMyNzkgODIuNDk1ODAzNSwyNDguMzIxMTk1IDgxLjE2MjA0NjEsMjQ5LjIwMjc2MiBDNzkuMjM2NTY3MSwyNTAuNDc1NDM2IDc2LjQ3MjM0MTIsMjUxLjQ0NjMzNCA3My42NzUzMTM4LDI1MS44MzI0MzggQzcyLjg0MTE3MjgsMjUxLjk0NzUzNCA3MC4wNzM2MjQ5LDI1Mi4wNDI1MDEgNjkuMzYzOTUzNCwyNTEuOTgwMzE4IEM2NC40NjE5NjcxLDI1MS41NTA3MTcgNjAuNzE2MTg1MiwyNTAuMDQ3NjE2IDU3Ljk5MTczMzMsMjQ3LjQxNjg1MSBDNTUuMjE5ODMsMjQ0Ljc0MDE3NiA1NC4wMzA0NDUsMjQxLjI1MDUxOSA1NC40OTk4MzY0LDIzNy4xNzE0NDkgQzU1LjAzOTk4NjgsMjMyLjQ3NzM3NyA1Ny4yMzQzMzgxLDIyOS4xNjI1MjYgNjEuMDgxNjA2NCwyMjcuMjI4Njc3IEM2NC4wNDY3ODEzLDIyNS43MzgyIDY3LjAwNDg1MTksMjI1LjE3MTI0MSA3MS44MjIxODQ2LDIyNS4xNzAwNzkgQzc1LjI0NDg3MTQsMjI1LjE2ODYwOCA3OC4xMTI4NzkzLDIyNS40NTM1MjIgODIuNDg3MTI1OCwyMjYuMjI3MTQ0IEM4My41Njg3NDY4LDIyNi40MTg0NDUgODQuNTA1MTg2MSwyMjYuNTc1MDUgODQuNTY4MTA1NSwyMjYuNTc1MTgzIEM4NC42NTk2MDI3LDIyNi41NzUxODMgODQuNzMyMTY2NywyMjYuMjI1MjQ2IDg0LjkzMDYyODksMjI0LjgyNjE2IEM4NS4yODk3MDg3LDIyMi4yOTQ3OSA4NS4zNTQwNjY5LDIyMS40MjEzMTcgODUuMjU2MjM5OSwyMjAuNDA3MzA2IEM4NS4xNDIzNzE4LDIxOS4yMjY5NjQgODQuOTkzNzY0LDIxOC42NjQ3NTggODQuNTUzODcyNCwyMTcuNzUwMDEgQzgzLjQxODkxMTUsMjE1LjM4OTk0NSA4MC43MjQ3MDIsMjEzLjk0NTk2NiA3Ni4zOTgyNzYxLDIxMy4zNzkwMDcgQzc1LjE2MDk1NjEsMjEzLjIxNjg3IDcyLjMwNTI5ODIsMjEzLjE5NDE4IDcxLjA2NTgwNTUsMjEzLjMzNjU3MSBDNjguOTg5MTY1NCwyMTMuNTc1MjM4IDY3LjgzMDMyNjgsMjEzLjg3OTM0IDY1LjI0NTg5NjMsMjE0Ljg2MzcxNSBDNjMuNzMzODcwNSwyMTUuNDM5NjUgNjMuNzI2OTYwMiwyMTUuNDQxNDMxIDYzLjEyMzgyOTYsMjE1LjQwNTQzOSBDNjIuMDg2OTg1MywyMTUuMzQzNjgzIDYxLjM3OTE2NjUsMjE0Ljg2NjQ4MiA2MC45MjUxNzQ5LDIxMy45MjMyMDMgQzYwLjczODIwNTgsMjEzLjUzNDc1OSA2MC43MDUzMzA0LDIxMy4zNzQ0MDIgNjAuNzA1MzIzMiwyMTIuODUwOTk3IEM2MC43MDUzMjMyLDIxMi4wNjUyNjUgNjAuOTA2NjIzOSwyMTEuNjQ4MTQyIDYxLjYwNzU2MjgsMjEwLjk4MTYxMSBDNjMuMTc5NDAzLDIwOS40ODY4ODMgNjUuODI0NDY0NSwyMDguMjEzOTczIDY4LjQ5NDExODcsMjA3LjY2NzQzOCBDNzAuMjAzNTIyNSwyMDcuMzE3NTAxIDcxLjA0NDk4NDksMjA3LjI0MzkyOSA3My4yOTcxMjI4LDIwNy4yNDc0NDYgQzc1LjYyNzUwOSwyMDcuMjUzNjI2IDc3LjExNzYxNjksMjA3LjM4NDg0OCA3OS4xODg1NTgzLDIwNy43NzYzMDkgQzgyLjYzMzE1NDIsMjA4LjQyNzM0NiA4NS4yNDg2ODI1LDIwOS41NzQ5MDQgODcuMjIwOTQyOSwyMTEuMzAwNDEzIEM4Ny44MDYxNDQ5LDIxMS44MTIzODQgODguNjg4NTcyNywyMTIuODIwMDUzIDg5LjA2NjY4ODQsMjEzLjQwODA1MyBDODkuMTgyMjU3MywyMTMuNTg3Nzg5IDg5LjMwMTMxMTcsMjEzLjczNDg1OSA4OS4zMzEyNDU4LDIxMy43MzQ4NTkgQzg5LjM2MTE5ODYsMjEzLjczNDg1OSA4OS41NTIzNzQyLDIxMy41MTg4OTcgODkuNzU2MTEyNSwyMTMuMjU1MDA5IEM5Mi43NDI1NDM3LDIwOS4zODY1NiA5Ny43NzIzOTA4LDIwNy4xOTY5MzEgMTAzLjY2NTI1NiwyMDcuMjAwMDAzIFogTTUzLjU3NjA3MDQsMjA3LjIgQzU0LjU3MjgwODIsMjA3LjIgNTUuMzUxNTM4OSwyMDcuNTU4NDE5IDU1LjkxMjI0OTEsMjA4LjI3NTEyNCBDNTYuNTA0MDUyLDIwOC45OTE5MTcgNTYuOCwyMDkuODI4MTIzIDU2LjgsMjEwLjc4Mzc0NiBDNTYuOCwyMTEuNjc5NzI0IDU2LjUzNTE5NzgsMjEyLjQ1NjIwMiA1Ni4wMDU2OTk3LDIxMy4xMTMxODIgQzU1LjQ3NjEzNTIsMjEzLjc0MDM3OCA1NC43MTI5ODA4LDIxNC4wNTM5NTEgNTMuNzE2MjM2MywyMTQuMDUzOTEzIEM0OS41MTEwODUzLDIxNC4wNTM5NTEgNDYuNjQwNDMzNywyMTUuMDk5MjE0IDQ0LjMwNDI3NDgsMjE3LjE4OTY5NCBDNDIuMDU0NTM3MywyMTkuMjMwMDc3IDQwLjg1NDg3ODMsMjIxLjkzODk2NSA0MC44MDA1NTI5LDIyNS4zMTYzNjUgTDQwLjgsMjQ3LjgyMjY0NCBDNDAuOCwyNDkuMTA3OTg2IDQwLjM4NzQ1ODQsMjUwLjEzMzE5NyAzOS41NjI0MzE3LDI1MC44OTgyNzkgQzM4Ljc2NjgzNjMsMjUxLjYzMjc2IDM3LjgyMzkyNzEsMjUyIDM2LjczMzcwNDEsMjUyIEMzNS42NDM0NTU5LDI1MiAzNC43MTUyNzQ5LDI1MS42NDgwNjMgMzMuOTQ5MTczNywyNTAuOTQ0MTg4IEMzMy4yMTI1MTk5LDI1MC4yMzc5NTcgMzIuODMwMDMyMywyNDkuMjQ4NzggMzIuODAxNjk5OSwyNDcuOTc2NjU3IEwzMi44LDI0Ny44MjI2NDQgTDMyLjgsMjExLjMzMTQ1NiBDMzIuOCwyMTAuMDQ2MTU3IDMzLjE5Nzc4MiwyMDkuMDM2MjQ3IDMzLjk5MzM3MSwyMDguMzAxNzIxIEMzNC44MTg0MTAzLDIwNy41NjcyODYgMzUuNzc2MDQ3NywyMDcuMiAzNi44NjYyOTU5LDIwNy4yIEMzNy45MjcwNTYyLDIwNy4yIDM4Ljg0MDUwMjcsMjA3LjU2NzI4NiAzOS42MDY2MjksMjA4LjMwMTcyMSBDNDAuMzcwMzcwMywyMDkuMDA2ODY2IDQwLjc2NzUzOSwyMDkuOTY1ODA1IDQwLjc5ODA5MDUsMjExLjE3ODU0MiBMNDAuOCwyMTEuMzMxNDU2IEw0MC44LDIxNi45NjIgTDQwLjkxNjU0MiwyMTYuNTcyMDkzIEM0MS43Mjg4MDU2LDIxMy45Njg5NjQgNDMuMjQ3NDEzLDIxMS43ODU2NyA0NS40NzIzNjQyLDIxMC4wMjIyIEM0Ny44Mzk2NzU1LDIwOC4xNDA3NzggNTAuMjc0MjM5NywyMDcuMiA1My41NzYwNzA0LDIwNy4yIFogTTEyLjM0MDMzMzYsMTk0LjQgQzEzLjMyMTUzNDQsMTk0LjQgMTQuMTcwMTUyNywxOTQuNzE3ODA0IDE0Ljg4NjE4ODUsMTk1LjM1MzQxMyBDMTUuNjI4NzEyNSwxOTYuMDE1NTAyIDE2LDE5Ni45MDI3MDQgMTYsMTk4LjAxNTAxOSBMMTUuOTk5LDIwNy4xOTkgTDI0LjgsMjA3LjIgQzI2LjA3MDI1NDksMjA3LjIgMjcuMTEwMDIxMiwyMDguMTg2ODM5IDI3LjE5NDQ2MzEsMjA5LjQzNTY4MSBMMjcuMiwyMDkuNiBDMjcuMiwyMTAuODcwMjU1IDI2LjIxMzE2MSwyMTEuOTEwMDIxIDI0Ljk2NDMxODcsMjExLjk5NDQ2MyBMMjQuOCwyMTIgTDE1Ljk5OSwyMTEuOTk5IEwxNiwyMzUuNDEzNTY3IEwxNi4wMDExNDk3LDIzNS44Nzk1OTIgQzE2LjAxMTg5NzIsMjM4LjAyMzUxOCAxNi4wOTc5OTc3LDIzOS43MzU0MjUgMTYuMjU5NDU2NCwyNDEuMDE1MzE3IEMxNi40NjEyNDI5LDI0Mi40MTU3MDIgMTYuNjQ4NjMxMSwyNDMuODAwOTY2IDE3LjE2NzU2ODUsMjQ0LjUzMDQxNSBDMTcuNzE1Mjk0OCwyNDUuMjg4OTMgMTguMzM1MTEzMiwyNDUuODQ1NjAzIDE5LjAyNzAyMzYsMjQ2LjA0OTg5MSBDMTkuNjU1OTk5NSwyNDYuMjYyMDI2IDIwLjUxMTMzMTUsMjQ2LjM3Nzc2IDIxLjU5MzAyNDEsMjQ2LjM5NzA5MiBMMjEuOTI0MzIyNywyNDYuNCBMMjYuMDc1NjczOCwyNDYuNCBDMjcuNTg3MzI4NSwyNDYuNDQxMzUgMjguOCwyNDcuNjc5MDU4IDI4LjgsMjQ5LjIgQzI4LjgsMjUwLjYzMTg0OSAyNy43MjUyMzc3LDI1MS44MTI2NzUgMjYuMzM4NDMzNywyNTEuOTc5NzU1IEwyNi4xNzA1NjgyLDI1MS45OTQ4OSBMMjYuMTE4LDI1MS45OTcgTDI2LjExODkyMTcsMjUyIEwyMC4zNjc1NjU4LDI1MiBMMTkuOTU2ODYzNCwyNTEuOTk1NzU3IEMxNi4yODkzMzQzLDI1MS45MTkzOSAxMy4zOTkyMTA2LDI1MC44MTIwNjkgMTEuMjg2NDg2OCwyNDguNjczOTYxIEM5LjE2MTg3NzM2LDI0Ni41NTIwMyA4LjA2NzM5ODkyLDI0My4wMDM1NyA4LjAwMzAxNzg2LDIzOC4wMjg1NzIgTDgsMjM3LjU1Nzk4NyBMNy45OTksMjExLjk5OSBMMi40LDIxMiBDMS4xMjk3NDUwOCwyMTIgMC4wODk5Nzg3NTYzLDIxMS4wMTMxNjEgMC4wMDU1MzY4NjY3MSwyMDkuNzY0MzE5IEw3LjEwNTQyNzM2ZS0xNSwyMDkuNiBDNy4yNjA5ODg3MmUtMTUsMjA4LjMyOTc0NSAwLjk4NjgzOTAzMSwyMDcuMjg5OTc5IDIuMjM1NjgxMjcsMjA3LjIwNTUzNyBMMi40LDIwNy4yIEw4LjE2NSwyMDcuMTk5IEw4LjgsMTk4LjAxNTAxOSBDOC43OTk5OTQzNCwxOTYuODQ5NzM3IDkuMTQ0NzQ4MzUsMTk1Ljk0OTI5MiA5LjgzNDI1NjM2LDE5NS4zMTM2ODMgQzEwLjUyMzc0NzQsMTk0LjcwNDU2MSAxMS4zNTkxMTAzLDE5NC40IDEyLjM0MDMzMzYsMTk0LjQgWiBNNzIuNDYxMzA4NiwyMzEuMDMxMjA1IEM2OS40ODI4OTYzLDIzMS4yMDIwNzcgNjguMjY4NzAxMSwyMzEuNDY4MzggNjYuNDgwNDc0OSwyMzIuMzQzMDQ3IEM2NS41NjQzNjU5LDIzMi43OTExMTEgNjQuOTMyMDY3NywyMzMuMjc3MzYxIDY0LjQzMTc3NDEsMjMzLjkxODQzMiBDNjMuNzE0MDE0OCwyMzQuODM4MjQ4IDYzLjI4MDc4MjQsMjM1Ljc1MjI5NiA2Mi45Nzg4MDE5LDIzNi45ODM5MzggQzYyLjc1OTA0NywyMzcuODgwMTggNjIuNzM2NjIyMSwyNDAuMjI2OTE4IDYyLjk0MDU4MzYsMjQwLjk4MzAyNSBDNjMuMjg0MTY0MSwyNDIuMjU2NjggNjMuNjkyMDI4LDI0Mi45Nzc1NDggNjQuNjA5MTY5MiwyNDMuOTMyMDU2IEM2NS44NjUwMjQ4LDI0NS4yMzkwMzcgNjcuNTIwNTYxMSwyNDYuMTEwOTI4IDY5LjU3NDA5MjksMjQ2LjU0NjkxIEM3MC42MjQxNDMxLDI0Ni43Njk4NjMgNzAuNTkzMDY3MywyNDYuNzY3NjkxIDcyLjM1MTIzMDQsMjQ2Ljc0MDU3OSBDNzMuNjI2OTU3NywyNDYuNzIwNzQ0IDc0LjEwNDI2MzIsMjQ2LjY4NDA1MyA3NC42MjYxNDg5LDI0Ni41NjU3MjMgQzc2Ljg0MTcyMDQsMjQ2LjA2MjgzMSA3OC44MTYxMjA0LDI0NC45MjkzMjUgODAuMjQ5NDQyOCwyNDMuMzM3NDcyIEM4MS41NTY4ODkxLDI0MS44ODU0NjYgODIuNjI5MjY1OSwyMzkuNzEwMjA0IDgzLjIxOTQ0NTgsMjM3LjMxMzA2NyBDODMuNTUyMTI0MywyMzUuOTYxNzcyIDg0LjEwNTExNTIsMjMyLjIwMDg5OSA4My45ODI1MzM5LDIzMi4xMjMzNDUgQzgzLjkzNDE1NzcsMjMyLjA5MjY4IDgzLjY0MTkxMDksMjMyLjA0NDI4MSA4My4zMzMxNzU1LDIzMi4wMTU2NTkgQzgzLjEwMTYxNzUsMjMxLjk5NDAwOCA4Mi41NDg3MDM2LDIzMS45Mjg4NzIgODEuOTYzMTk2OSwyMzEuODU0ODExIEw4MS41NzExOTk0LDIzMS44MDQ0OTUgQzgxLjUwNjExOCwyMzEuNzk2MDE1IDgxLjQ0MTQyNjUsMjMxLjc4NzUxOSA4MS4zNzc1MjA5LDIzMS43NzkwNTYgQzc2LjgyMjQyODcsMjMxLjE3NTY4NCA3NC4wMjc5MzYsMjMwLjk0MTI1MyA3Mi40NjEzMDg2LDIzMS4wMzEyMDUgWiBNMTAwLjI0MjcwOSwyMTIuOTg1MjcyIEM5OC42MjA1NzA2LDIxMy4yODk5NDEgOTcuMjQ5Mzg2OSwyMTMuODQ1MjcxIDk2LjA0MDA1OSwyMTQuNjg3MjU3IEM5My44MDU3OTM1LDIxNi4yNDI4ODMgOTIuMjYzODQ0MywyMTguNTg3ODQxIDkxLjQwNTE5OTMsMjIxLjczNTc5NSBDOTEuMDY3OTMwMSwyMjIuOTcyMjgxIDkwLjk3ODAyMzEsMjIzLjQ0Njg5NCA5MC42NzczMjIsMjI1LjU3ODI4MSBMOTAuMzk5OTQzMiwyMjcuNTQ0NDA0IEw5MC43NzE1MDIxLDIyNy41ODY1MzQgQzkxLjg5MzcwNjUsMjI3LjcxNDYyMSA5NC40MjQyNDc1LDIyOC4wMzAwMzEgOTUuODkzODgwMSwyMjguMjI1MDQzIEM5Ni44MTg0NjIyLDIyOC4zNDc3MTcgOTcuOTUzMTgxLDIyOC40Nzg2MjYgOTguNDE1NDczNSwyMjguNTE2MDA0IEM5OS42NDkxMTM4LDIyOC42MTU2ODUgMTAxLjc4NTY2LDIyOC42MTQ3OSAxMDMuMTM3ODk0LDIyOC41MjA0NjMgTDEwMy40NTg2MzYsMjI4LjQ5NDk0IEwxMDMuNDU4NjM2LDIyOC40OTUzNTcgQzEwNS4zMDQxNSwyMjguMzI3NzMyIDEwNi40Mzg5MTgsMjI4LjAzMjc5NiAxMDcuODMzMTYyLDIyNy4zNTg1MzYgQzEwOC45OTI3NDMsMjI2Ljc5NzY5MSAxMDkuNjY2NzE3LDIyNi4yMjQ0OTMgMTEwLjMwNDUwNSwyMjUuMjU2Njk0IEMxMTEuMjQzNDgsMjIzLjgzMTgwNSAxMTEuNjA5MTE5LDIyMi40ODMzNzEgMTExLjU5OTkxLDIyMC40Nzk5MjggQzExMS41OTMwMiwyMTkuMDUxOTcyIDExMS40NzU0NTgsMjE4LjQ1Nzk1NCAxMTAuOTk2NTc4LDIxNy40MzI3OTIgQzEwOS45MjY1OTksMjE1LjE0MjMwMyAxMDcuNDEzMDcsMjEzLjUwMTY0IDEwNC4xMTY0NTUsMjEyLjk0MTkxOSBDMTAzLjI5MzgzOSwyMTIuODAyMjg0IDEwMS4wODU5MDYsMjEyLjgyNzA3OCAxMDAuMjQyNzA5LDIxMi45ODUyNzIgWiBNMTYxLjY0MTAyNCwxODggQzE2My4wNjMyMzUsMTg4IDE2NC4yMTE5NTMsMTg4LjM5MjgxNSAxNjUuMDg3MTc5LDE4OS4xNzgyODEgQzE2NS45NjIzODEsMTg5LjkzODUxNSAxNjYuNCwxOTAuOTUyMDg4IDE2Ni40LDE5Mi4yMTkwMDUgQzE2Ni40LDE5My40NjA2ODMgMTY1Ljk2MjM4MSwxOTQuNDc0MjU3IDE2NS4wODcxNzksMTk1LjI1OTcyOSBDMTY0LjIxMTk1MywxOTYuMDE5OTU3IDE2My4wNDk1NTksMTk2LjQgMTYxLjYsMTk2LjQgQzE2MC4xNTA0MTgsMTk2LjQgMTU4Ljk4ODAyMywxOTYuMDE5OTU3IDE1OC4xMTI4MjEsMTk1LjI1OTcyOSBDMTU3LjIzNzYwMSwxOTQuNDc0MjU3IDE1Ni44LDE5My40NjA2ODMgMTU2LjgsMTkyLjIxOTAwNSBDMTU2LjgsMTkwLjk3NzQyOCAxNTcuMjM3NjAxLDE4OS45NjM4NTQgMTU4LjExMjgyMSwxODkuMTc4MjgxIEMxNTkuMDE1Mzc3LDE4OC4zOTI4MTUgMTYwLjE5MTQ0MiwxODggMTYxLjY0MTAyNCwxODggWiIvPgogICAgICAgIDxwYXRoIGZpbGwtcnVsZT0ibm9uemVybyIgZmlsbD0iIzAwMDAwMCIgaWQ9InByb3h5IiBkPSJNMzIuOCwzMTcuNjQgQzMzLjIyNjY2NjcsMzE3LjY0IDMzLjU1NzMzMzMsMzE3LjUxMiAzMy43OTIsMzE3LjI1NiBDMzQuMDI2NjY2NywzMTcgMzQuMTQ0LDMxNi42MzczMzMgMzQuMTQ0LDMxNi4xNjggTDM0LjE0NCwzMTYuMTY4IEwzNC4xNDQsMjk5LjUyOCBDMzUuMDgyNjY2NywzMDEuNzA0IDM2LjQ4LDMwMy4zNjggMzguMzM2LDMwNC41MiBDNDAuMTkyLDMwNS42NzIgNDIuNDIxMzMzMywzMDYuMjQ4IDQ1LjAyNCwzMDYuMjQ4IEM0Ny43NTQ2NjY3LDMwNi4yNDggNTAuMTY1MzMzMywzMDUuNTg2NjY3IDUyLjI1NiwzMDQuMjY0IEM1NC4zNDY2NjY3LDMwMi45NDEzMzMgNTUuOTY4LDMwMS4wNzQ2NjcgNTcuMTIsMjk4LjY2NCBDNTguMjcyLDI5Ni4yNTMzMzMgNTguODQ4LDI5My40NDggNTguODQ4LDI5MC4yNDggQzU4Ljg0OCwyODcuMDA1MzMzIDU4LjI3MiwyODQuMTY4IDU3LjEyLDI4MS43MzYgQzU1Ljk2OCwyNzkuMzA0IDU0LjM0NjY2NjcsMjc3LjQxNiA1Mi4yNTYsMjc2LjA3MiBDNTAuMTY1MzMzMywyNzQuNzI4IDQ3Ljc1NDY2NjcsMjc0LjA1NiA0NS4wMjQsMjc0LjA1NiBDNDIuNDIxMzMzMywyNzQuMDU2IDQwLjE5MiwyNzQuNjIxMzMzIDM4LjMzNiwyNzUuNzUyIEMzNi40OCwyNzYuODgyNjY3IDM1LjA4MjY2NjcsMjc4LjUxNDY2NyAzNC4xNDQsMjgwLjY0OCBMMzQuMTQ0LDI4MC42NDggTDM0LjE0NCwyNzUuNTkyIEMzNC4xNDQsMjc1LjE2NTMzMyAzNC4wMjY2NjY3LDI3NC44MjQgMzMuNzkyLDI3NC41NjggQzMzLjU1NzMzMzMsMjc0LjMxMiAzMy4yMjY2NjY3LDI3NC4xODQgMzIuOCwyNzQuMTg0IEMzMi4zNzMzMzMzLDI3NC4xODQgMzIuMDQyNjY2NywyNzQuMzEyIDMxLjgwOCwyNzQuNTY4IEMzMS41NzMzMzMzLDI3NC44MjQgMzEuNDU2LDI3NS4xNjUzMzMgMzEuNDU2LDI3NS41OTIgTDMxLjQ1NiwyNzUuNTkyIEwzMS40NTYsMzE2LjE2OCBDMzEuNDU2LDMxNy4xNDkzMzMgMzEuOTA0LDMxNy42NCAzMi44LDMxNy42NCBaIE00NC45NiwzMDMuNjI0IEM0MS41MDQsMzAzLjYyNCAzOC44MzczMzMzLDMwMi40NTA2NjcgMzYuOTYsMzAwLjEwNCBDMzUuMDgyNjY2NywyOTcuNzU3MzMzIDM0LjE0NCwyOTQuNDI5MzMzIDM0LjE0NCwyOTAuMTIgQzM0LjE0NCwyODUuODEwNjY3IDM1LjA4MjY2NjcsMjgyLjQ5MzMzMyAzNi45NiwyODAuMTY4IEMzOC44MzczMzMzLDI3Ny44NDI2NjcgNDEuNTI1MzMzMywyNzYuNjggNDUuMDI0LDI3Ni42OCBDNDguNDM3MzMzMywyNzYuNjggNTEuMTA0LDI3Ny44NzQ2NjcgNTMuMDI0LDI4MC4yNjQgQzU0Ljk0NCwyODIuNjUzMzMzIDU1LjkwNCwyODUuOTgxMzMzIDU1LjkwNCwyOTAuMjQ4IEM1NS45MDQsMjk0LjUxNDY2NyA1NC45NDQsMjk3LjgxMDY2NyA1My4wMjQsMzAwLjEzNiBDNTEuMTA0LDMwMi40NjEzMzMgNDguNDE2LDMwMy42MjQgNDQuOTYsMzAzLjYyNCBaIE02OC45NiwzMDYuMTIgQzY5LjM4NjY2NjcsMzA2LjEyIDY5LjcxNzMzMzMsMzA1Ljk5MiA2OS45NTIsMzA1LjczNiBDNzAuMTg2NjY2NywzMDUuNDggNzAuMzA0LDMwNS4xMTczMzMgNzAuMzA0LDMwNC42NDggTDcwLjMwNCwzMDQuNjQ4IEw3MC4zMDQsMjg3LjE3NiBDNzAuMzA0LDI4NC41NzMzMzMgNzEuMDkzMzMzMywyODIuMjY5MzMzIDcyLjY3MiwyODAuMjY0IEM3NC4yNTA2NjY3LDI3OC4yNTg2NjcgNzYuNTk3MzMzMywyNzcuMTA2NjY3IDc5LjcxMiwyNzYuODA4IEw3OS43MTIsMjc2LjgwOCBMODEuNjMyLDI3Ni42MTYgQzgyLjUyOCwyNzYuNDg4IDgyLjk3NiwyNzYuMDYxMzMzIDgyLjk3NiwyNzUuMzM2IEM4Mi45NzYsMjc0Ljk1MiA4Mi44OCwyNzQuNjY0IDgyLjY4OCwyNzQuNDcyIEM4Mi40OTYsMjc0LjI4IDgyLjE0NCwyNzQuMTg0IDgxLjYzMiwyNzQuMTg0IEw4MS42MzIsMjc0LjE4NCBMODEuMTg0LDI3NC4xODQgTDgwLjI4OCwyNzQuMjQ4IEM3NS40NjY2NjY3LDI3NC41ODkzMzMgNzIuMTM4NjY2NywyNzYuNTk0NjY3IDcwLjMwNCwyODAuMjY0IEw3MC4zMDQsMjgwLjI2NCBMNzAuMzA0LDI3NS42NTYgQzcwLjMwNCwyNzUuMTg2NjY3IDcwLjE3NiwyNzQuODI0IDY5LjkyLDI3NC41NjggQzY5LjY2NCwyNzQuMzEyIDY5LjM0NCwyNzQuMTg0IDY4Ljk2LDI3NC4xODQgQzY4LjA2NCwyNzQuMTg0IDY3LjYxNiwyNzQuNjc0NjY3IDY3LjYxNiwyNzUuNjU2IEw2Ny42MTYsMjc1LjY1NiBMNjcuNjE2LDMwNC42NDggQzY3LjYxNiwzMDUuMTE3MzMzIDY3LjczMzMzMzMsMzA1LjQ4IDY3Ljk2OCwzMDUuNzM2IEM2OC4yMDI2NjY3LDMwNS45OTIgNjguNTMzMzMzMywzMDYuMTIgNjguOTYsMzA2LjEyIFogTTEwMC4xOTIsMzA2LjI0OCBDMTAyLjkyMjY2NywzMDYuMjQ4IDEwNS4zMzMzMzMsMzA1LjU4NjY2NyAxMDcuNDI0LDMwNC4yNjQgQzEwOS41MTQ2NjcsMzAyLjk0MTMzMyAxMTEuMTM2LDMwMS4wNjQgMTEyLjI4OCwyOTguNjMyIEMxMTMuNDQsMjk2LjIgMTE0LjAxNiwyOTMuMzYyNjY3IDExNC4wMTYsMjkwLjEyIEMxMTQuMDE2LDI4Ni45MiAxMTMuNDQsMjg0LjEwNCAxMTIuMjg4LDI4MS42NzIgQzExMS4xMzYsMjc5LjI0IDEwOS41MTQ2NjcsMjc3LjM2MjY2NyAxMDcuNDI0LDI3Ni4wNCBDMTA1LjMzMzMzMywyNzQuNzE3MzMzIDEwMi45MjI2NjcsMjc0LjA1NiAxMDAuMTkyLDI3NC4wNTYgQzk3LjQ2MTMzMzMsMjc0LjA1NiA5NS4wNTA2NjY3LDI3NC43MTczMzMgOTIuOTYsMjc2LjA0IEM5MC44NjkzMzMzLDI3Ny4zNjI2NjcgODkuMjQ4LDI3OS4yNCA4OC4wOTYsMjgxLjY3MiBDODYuOTQ0LDI4NC4xMDQgODYuMzY4LDI4Ni45MiA4Ni4zNjgsMjkwLjEyIEM4Ni4zNjgsMjkzLjM2MjY2NyA4Ni45NDQsMjk2LjIgODguMDk2LDI5OC42MzIgQzg5LjI0OCwzMDEuMDY0IDkwLjg2OTMzMzMsMzAyLjk0MTMzMyA5Mi45NiwzMDQuMjY0IEM5NS4wNTA2NjY3LDMwNS41ODY2NjcgOTcuNDYxMzMzMywzMDYuMjQ4IDEwMC4xOTIsMzA2LjI0OCBaIE0xMDAuMTI4LDMwMy42MjQgQzk2LjY3MiwzMDMuNjI0IDkzLjk5NDY2NjcsMzAyLjQ2MTMzMyA5Mi4wOTYsMzAwLjEzNiBDOTAuMTk3MzMzMywyOTcuODEwNjY3IDg5LjI0OCwyOTQuNDcyIDg5LjI0OCwyOTAuMTIgQzg5LjI0OCwyODUuODk2IDkwLjIxODY2NjcsMjgyLjYgOTIuMTYsMjgwLjIzMiBDOTQuMTAxMzMzMywyNzcuODY0IDk2Ljc3ODY2NjcsMjc2LjY4IDEwMC4xOTIsMjc2LjY4IEMxMDMuNjA1MzMzLDI3Ni42OCAxMDYuMjgyNjY3LDI3Ny44NjQgMTA4LjIyNCwyODAuMjMyIEMxMTAuMTY1MzMzLDI4Mi42IDExMS4xMzYsMjg1Ljg5NiAxMTEuMTM2LDI5MC4xMiBDMTExLjEzNiwyOTQuNDcyIDExMC4xODY2NjcsMjk3LjgxMDY2NyAxMDguMjg4LDMwMC4xMzYgQzEwNi4zODkzMzMsMzAyLjQ2MTMzMyAxMDMuNjY5MzMzLDMwMy42MjQgMTAwLjEyOCwzMDMuNjI0IFogTTE0Ni4xNDQsMzA1Ljk5MiBDMTQ2LjQ4NTMzMywzMDUuOTkyIDE0Ni43ODQsMzA1Ljg2NCAxNDcuMDQsMzA1LjYwOCBDMTQ3LjI5NiwzMDUuMzUyIDE0Ny40MjQsMzA1LjAzMiAxNDcuNDI0LDMwNC42NDggQzE0Ny40MjQsMzA0LjI2NCAxNDcuMjc0NjY3LDMwMy45MDEzMzMgMTQ2Ljk3NiwzMDMuNTYgTDE0Ni45NzYsMzAzLjU2IEwxMzUuMjY0LDI4OS45MjggTDE0Ni42NTYsMjc2LjYxNiBDMTQ2Ljk1NDY2NywyNzYuMjc0NjY3IDE0Ny4xMDQsMjc1LjkxMiAxNDcuMTA0LDI3NS41MjggQzE0Ny4xMDQsMjc1LjE0NCAxNDYuOTY1MzMzLDI3NC44MjQgMTQ2LjY4OCwyNzQuNTY4IEMxNDYuNDEwNjY3LDI3NC4zMTIgMTQ2LjEwMTMzMywyNzQuMTg0IDE0NS43NiwyNzQuMTg0IEMxNDUuMzc2LDI3NC4xODQgMTQ1LjAxMzMzMywyNzQuMzc2IDE0NC42NzIsMjc0Ljc2IEwxNDQuNjcyLDI3NC43NiBMMTMzLjUzNiwyODcuOTQ0IEwxMjIuNCwyNzQuNzYgQzEyMi4wNTg2NjcsMjc0LjM3NiAxMjEuNjk2LDI3NC4xODQgMTIxLjMxMiwyNzQuMTg0IEMxMjAuOTcwNjY3LDI3NC4xODQgMTIwLjY3MiwyNzQuMzEyIDEyMC40MTYsMjc0LjU2OCBDMTIwLjE2LDI3NC44MjQgMTIwLjAzMiwyNzUuMTQ0IDEyMC4wMzIsMjc1LjUyOCBDMTIwLjAzMiwyNzUuOTEyIDEyMC4xODEzMzMsMjc2LjI3NDY2NyAxMjAuNDgsMjc2LjYxNiBMMTIwLjQ4LDI3Ni42MTYgTDEzMS44MDgsMjg5LjkyOCBMMTIwLjA5NiwzMDMuNTYgQzExOS43OTczMzMsMzAzLjkwMTMzMyAxMTkuNjQ4LDMwNC4yNjQgMTE5LjY0OCwzMDQuNjQ4IEMxMTkuNjQ4LDMwNS4wMzIgMTE5Ljc3NiwzMDUuMzUyIDEyMC4wMzIsMzA1LjYwOCBDMTIwLjI4OCwzMDUuODY0IDEyMC41ODY2NjcsMzA1Ljk5MiAxMjAuOTI4LDMwNS45OTIgQzEyMS4zMTIsMzA1Ljk5MiAxMjEuNjk2LDMwNS44IDEyMi4wOCwzMDUuNDE2IEwxMjIuMDgsMzA1LjQxNiBMMTMzLjUzNiwyOTEuOTEyIEwxNDUuMDU2LDMwNS40MTYgQzE0NS4zOTczMzMsMzA1LjggMTQ1Ljc2LDMwNS45OTIgMTQ2LjE0NCwzMDUuOTkyIFogTTE2MS4wNTYsMzE3LjUxMiBDMTYxLjU2OCwzMTcuNTEyIDE2MS45NTIsMzE3LjI1NiAxNjIuMjA4LDMxNi43NDQgTDE2Mi4yMDgsMzE2Ljc0NCBMMTgwLjU3NiwyNzYuMDQgQzE4MC42NjEzMzMsMjc1Ljc4NCAxODAuNzA0LDI3NS41OTIgMTgwLjcwNCwyNzUuNDY0IEMxODAuNzA0LDI3NS4wOCAxODAuNTc2LDI3NC43NzA2NjcgMTgwLjMyLDI3NC41MzYgQzE4MC4wNjQsMjc0LjMwMTMzMyAxNzkuNzY1MzMzLDI3NC4xODQgMTc5LjQyNCwyNzQuMTg0IEMxNzguODY5MzMzLDI3NC4xODQgMTc4LjQ2NCwyNzQuNDgyNjY3IDE3OC4yMDgsMjc1LjA4IEwxNzguMjA4LDI3NS4wOCBMMTY2LjA0OCwzMDIuNDA4IEwxNjUuOTIsMzAyLjcyOCBMMTUzLjU2OCwyNzQuODg4IEMxNTMuMzEyLDI3NC4zNzYgMTUyLjk0OTMzMywyNzQuMTIgMTUyLjQ4LDI3NC4xMiBDMTUyLjA5NiwyNzQuMTIgMTUxLjc1NDY2NywyNzQuMjQ4IDE1MS40NTYsMjc0LjUwNCBDMTUxLjE1NzMzMywyNzQuNzYgMTUxLjAwOCwyNzUuMDggMTUxLjAwOCwyNzUuNDY0IEMxNTEuMDA4LDI3NS41OTIgMTUxLjA1MDY2NywyNzUuNzg0IDE1MS4xMzYsMjc2LjA0IEwxNTEuMTM2LDI3Ni4wNCBMMTY0LjU3NiwzMDUuNzM2IEwxNTkuOTY4LDMxNS44NDggTDE1OS44NCwzMTYuMzYgQzE1OS44NCwzMTYuNzAxMzMzIDE1OS45NTczMzMsMzE2Ljk3ODY2NyAxNjAuMTkyLDMxNy4xOTIgQzE2MC40MjY2NjcsMzE3LjQwNTMzMyAxNjAuNzE0NjY3LDMxNy41MTIgMTYxLjA1NiwzMTcuNTEyIFoiLz4KICAgIDwvZz4KPC9zdmc+;" vertex="1" parent="8">
                    <mxGeometry x="134.5" y="150.76" width="91" height="138.47" as="geometry"/>
                </mxCell>
                <mxCell id="13" style="edgeStyle=none;html=1;entryX=0;entryY=0.5;entryDx=0;entryDy=0;" parent="1" source="12" target="8" edge="1">
                    <mxGeometry relative="1" as="geometry"/>
                </mxCell>
                <mxCell id="12" value="User" style="shape=umlActor;verticalLabelPosition=bottom;verticalAlign=top;html=1;outlineConnect=0;" parent="1" vertex="1">
                    <mxGeometry x="40" y="340" width="40" height="60" as="geometry"/>
                </mxCell>
                <mxCell id="63" style="edgeStyle=none;html=1;" edge="1" parent="1" source="69" target="59">
                    <mxGeometry relative="1" as="geometry">
                        <mxPoint x="420" y="92" as="sourcePoint"/>
                    </mxGeometry>
                </mxCell>
                <mxCell id="61" value="" style="edgeStyle=none;html=1;" edge="1" parent="1" source="59" target="69">
                    <mxGeometry relative="1" as="geometry">
                        <mxPoint x="420" y="100" as="targetPoint"/>
                    </mxGeometry>
                </mxCell>
                <mxCell id="68" value="AWS Cloud" style="points=[[0,0],[0.25,0],[0.5,0],[0.75,0],[1,0],[1,0.25],[1,0.5],[1,0.75],[1,1],[0.75,1],[0.5,1],[0.25,1],[0,1],[0,0.75],[0,0.5],[0,0.25]];outlineConnect=0;gradientColor=none;html=1;whiteSpace=wrap;fontSize=12;fontStyle=0;container=1;pointerEvents=0;collapsible=0;recursiveResize=0;shape=mxgraph.aws4.group;grIcon=mxgraph.aws4.group_aws_cloud_alt;strokeColor=#232F3E;fillColor=none;verticalAlign=top;align=left;spacingLeft=30;fontColor=#232F3E;dashed=0;" vertex="1" parent="1">
                    <mxGeometry x="260" y="-110" width="530" height="190" as="geometry"/>
                </mxCell>
                <mxCell id="69" value="Amazon Cognito" style="sketch=0;outlineConnect=0;fontColor=#232F3E;gradientColor=none;strokeColor=#ffffff;fillColor=#232F3E;dashed=0;verticalLabelPosition=middle;verticalAlign=bottom;align=center;html=1;whiteSpace=wrap;fontSize=10;fontStyle=1;spacing=3;shape=mxgraph.aws4.productIcon;prIcon=mxgraph.aws4.cognito;" vertex="1" parent="68">
                    <mxGeometry x="114.5" y="40" width="95.5" height="110" as="geometry"/>
                </mxCell>
                <mxCell id="70" value="" style="outlineConnect=0;dashed=0;verticalLabelPosition=bottom;verticalAlign=top;align=center;html=1;shape=mxgraph.aws3.ses;fillColor=#D9A741;gradientColor=none;" vertex="1" parent="68">
                    <mxGeometry x="330" y="40" width="100" height="110" as="geometry"/>
                </mxCell>
                <mxCell id="72" style="edgeStyle=none;html=1;" edge="1" parent="68" source="69" target="70">
                    <mxGeometry relative="1" as="geometry"/>
                </mxCell>
                <mxCell id="73" value="Amazon&lt;br&gt;SES" style="text;html=1;align=center;verticalAlign=middle;resizable=0;points=[];autosize=1;strokeColor=none;fillColor=none;" vertex="1" parent="68">
                    <mxGeometry x="350" y="150" width="70" height="40" as="geometry"/>
                </mxCell>
            </root>
        </mxGraphModel>
    </diagram>
</mxfile>